<svg xmlns="http://www.w3.org/2000/svg" xmlns:xlink="http://www.w3.org/1999/xlink" width="100%" height="100%" viewBox="0 0 375 901">
  <defs>
    <clipPath id="clip-path">
      <rect id="Rectangle_3508" data-name="Rectangle 3508" width="100%" height="100%" transform="translate(-181.765 -221.929)" fill="#fff" stroke="#707070" stroke-width="1"/>
    </clipPath>
    <linearGradient id="linear-gradient" x1="-0.798" y1="25.574" x2="0.311" y2="25.574" gradientUnits="objectBoundingBox">
      <stop offset="0" stop-color="#a564b6"/>
      <stop offset="1" stop-color="#e1a2f3"/>
    </linearGradient>
    <linearGradient id="linear-gradient-2" x1="-1.262" y1="32.102" x2="-0.075" y2="32.102" gradientUnits="objectBoundingBox">
      <stop offset="0" stop-color="#e1a2f3"/>
      <stop offset="1" stop-color="#a564b6"/>
    </linearGradient>
    <linearGradient id="linear-gradient-3" x1="0.015" y1="-1.022" x2="1.015" y2="-1.022" xlink:href="#linear-gradient"/>
    <linearGradient id="linear-gradient-4" x1="0.027" y1="-4.035" x2="1.031" y2="-4.035" xlink:href="#linear-gradient-2"/>
    <linearGradient id="linear-gradient-5" x1="0.048" y1="-3.032" x2="1.01" y2="-3.032" xlink:href="#linear-gradient-2"/>
    <linearGradient id="linear-gradient-6" x1="1.032" y1="27.783" x2="2.168" y2="27.783" xlink:href="#linear-gradient"/>
    <linearGradient id="linear-gradient-7" x1="1.84" y1="35.751" x2="3.116" y2="35.751" xlink:href="#linear-gradient-2"/>
    <linearGradient id="linear-gradient-8" x1="2.927" y1="209.187" x2="3.845" y2="209.187" xlink:href="#linear-gradient-2"/>
  </defs>
  <g id="Mask_Group_11" data-name="Mask Group 11" transform="translate(181.765 221.929)" clip-path="url(#clip-path)">
    <g id="Group_9952" data-name="Group 9952" transform="translate(-772.156 -423.169)">
      <g id="Group_9918" data-name="Group 9918" transform="translate(0 216.108) rotate(-10)">
        <g id="Group_9916" data-name="Group 9916" transform="translate(137.311 1303.137) rotate(17)">
          <ellipse id="Ellipse_229" data-name="Ellipse 229" cx="32.638" cy="32.342" rx="32.638" ry="32.342" transform="translate(36.921 0)" fill="#d7b3e2"/>
          <circle id="Ellipse_230" data-name="Ellipse 230" cx="32.342" cy="32.342" r="32.342" transform="translate(0 24.515)" fill="#d7b3e2"/>
          <ellipse id="Ellipse_231" data-name="Ellipse 231" cx="32.49" cy="32.195" rx="32.49" ry="32.195" transform="translate(74.727 12.405)" fill="#d7b3e2"/>
          <ellipse id="Ellipse_232" data-name="Ellipse 232" cx="32.638" cy="32.49" rx="32.638" ry="32.49" transform="translate(36.921 38.988)" fill="#d7b3e2"/>
        </g>
        <text id="_2021_華南銀行版權所有" data-name="© 2021 華南銀行版權所有" transform="translate(413.871 1395.963)" fill="#fff" font-size="1" font-family="Lato-Regular, Lato"><tspan x="0" y="0">© 2021 </tspan><tspan y="0" font-family="PingFangTC-Regular, PingFang TC">華南銀行版權所有</tspan></text>
        <g id="Group_9917" data-name="Group 9917" transform="translate(0 0)">
          <rect id="Rectangle_3501" data-name="Rectangle 3501" width="1163.195" height="570.085" transform="matrix(0.985, 0.174, -0.174, 0.985, 98.994, 0)" fill="#ffe983"/>
          <path id="Union_6" data-name="Union 6" d="M569.689,200.786a44.611,44.611,0,0,1-57.5-39.726,44.837,44.837,0,0,1-63.946-29.028,44.558,44.558,0,0,1-42.071-7.907,34.192,34.192,0,0,1-61.474-2.033,34.2,34.2,0,0,1-54.579-13.849,33.753,33.753,0,0,1-33.285,6.592,38.317,38.317,0,0,1-35.985,13.22,38.066,38.066,0,0,1-70.318,13.2,38.1,38.1,0,1,1-4.38-74.119,38.112,38.112,0,0,1,68.6-12.859,38.357,38.357,0,0,1,31.13,2.583A33.758,33.758,0,0,1,299.618,71.1,34.2,34.2,0,0,1,353.4,82.89a34.264,34.264,0,0,1,37.871-4.837A44.616,44.616,0,0,1,442.133,45.4,44.869,44.869,0,0,1,522.6,30.736a44.637,44.637,0,0,1,58.262,52.456c.275,0,.548-.008.825-.008a45.313,45.313,0,0,1,7.682.652,45,45,0,0,1,53.611,12.828,44.569,44.569,0,0,1,39.1-12.265,44.869,44.869,0,0,1,80.47-14.667,44.627,44.627,0,0,1,56.159,58.979A44.6,44.6,0,1,1,750,185.507a44.866,44.866,0,0,1-60.486-11,44.438,44.438,0,0,1-29.75,11.372,44.888,44.888,0,0,1-7.737-.668,44.8,44.8,0,0,1-82.341,15.572ZM536.34,118.138c.5-.258,1.009-.508,1.521-.747h-.376c-.4,0-.806-.005-1.206-.016C536.3,117.631,536.322,117.883,536.34,118.138ZM0,166.721a38.3,38.3,0,0,1,45.708-37.378A38.132,38.132,0,1,1,69.04,189.331,38.282,38.282,0,0,1,0,166.721ZM382.22,44.069a13.748,13.748,0,0,1-8.7-9.838A13.757,13.757,0,1,1,380.89,8.55a13.761,13.761,0,0,1,24.883,4.265,13.85,13.85,0,0,1,4.574.84,13.624,13.624,0,1,1-9.319,25.6,13.968,13.968,0,0,1-2.283-1.072,13.745,13.745,0,0,1-16.524,5.882ZM225.213,19.881a7.118,7.118,0,0,1-1.694.2,7.312,7.312,0,0,1-7.236-7.384,7.311,7.311,0,0,1,7.236-7.384,7.162,7.162,0,0,1,1.012.071,7.387,7.387,0,0,1,13.4-1.87,7.49,7.49,0,0,1,2.864-.565,7.312,7.312,0,0,1,7.384,7.237,7.312,7.312,0,0,1-7.384,7.236,7.541,7.541,0,0,1-1.834-.225,7.386,7.386,0,0,1-13.751,2.68Z" transform="translate(202.223 374.806)" fill="#fff9dd"/>
        </g>
      </g>
      <ellipse id="Ellipse_264" data-name="Ellipse 264" cx="344.822" cy="111.812" rx="344.822" ry="111.812" transform="matrix(0.978, -0.208, 0.208, 0.978, 199.201, 650.405)" fill="#c184c5"/>
      <path id="Path_7904" data-name="Path 7904" d="M5380.587-1586.931s-324.675-71.14-492.125-57.943-724.61,215.258-724.61,215.258l-16.178,328.371,1258.787,15.175Z" transform="translate(-4067.475 2198.822)" fill="#c184c5"/>
      <path id="Path_7905" data-name="Path 7905" d="M6387.349-1643.517l9.38,5.185,26.76,3.8,35.4-8.981Z" transform="translate(-5659.496 2199.8)" fill="#c184c5"/>
      <path id="Path_7906" data-name="Path 7906" d="M416.346,29.034s-287.668-65.326-365.952,0-45.319,86.115-32.34,96.032,327.191,8.648,367.022,120.213S416.346,29.034,416.346,29.034Z" transform="matrix(0.999, 0.035, -0.035, 0.999, 788.077, 552.03)" opacity="0.096"/>
      <g id="Group_9919" data-name="Group 9919" transform="translate(243.84 579.79) rotate(-2)">
        <path id="Subtraction_5" data-name="Subtraction 5" d="M298.2,483.107c-37.454,0-73.238-3.324-106.357-9.879-8.163-1.616-16.25-3.45-24.036-5.45s-15.463-4.218-22.826-6.591-14.611-4.969-21.521-7.706-13.695-5.7-20.121-8.8c-26.189-12.6-47.922-27.935-64.6-45.565a159.029,159.029,0,0,1-11.7-13.858A143.954,143.954,0,0,1,17.3,370.467a134.2,134.2,0,0,1-7.673-15.7A128.838,128.838,0,0,1,.035,308.785a135.815,135.815,0,0,1,.484-14.878,145.12,145.12,0,0,1,2.105-14.945c.959-4.948,2.2-9.985,3.683-14.972,1.474-4.952,3.229-9.984,5.216-14.958,1.975-4.942,4.23-9.957,6.7-14.9,2.461-4.92,5.2-9.9,8.15-14.807,25.4-42.289,68.135-82.968,123.581-117.64a616.651,616.651,0,0,1,91.938-46.878c8.35-3.438,16.938-6.777,25.526-9.924,8.665-3.175,17.558-6.238,26.432-9.1,8.959-2.893,18.139-5.664,27.283-8.233,9.24-2.6,18.687-5.056,28.079-7.311,14.125-3.392,28.473-6.4,42.646-8.954,13.962-2.512,28.089-4.636,41.988-6.312,13.716-1.654,27.536-2.911,41.076-3.737C488.312.414,501.74,0,514.836,0c11.033,0,22.075.294,32.821.874C538.978,2.7,530.3,4.742,521.875,6.944c-8.359,2.184-16.683,4.58-24.741,7.12-8.007,2.525-15.95,5.255-23.608,8.116-7.621,2.847-15.152,5.893-22.385,9.056-7.208,3.152-14.3,6.5-21.07,9.942s-13.378,7.064-19.665,10.774-12.4,7.595-18.168,11.551-11.357,8.09-16.58,12.272c-5.24,4.2-10.253,8.549-14.9,12.94-4.67,4.411-9.088,8.971-13.132,13.552a180,180,0,0,0-11.271,14.11,155.584,155.584,0,0,0-9.319,14.614,136.318,136.318,0,0,0-7.276,15.062,122.182,122.182,0,0,0-5.142,15.456,113.329,113.329,0,0,0-2.917,15.8,109.9,109.9,0,0,0-.6,16.08c.116,3.186.374,6.4.768,9.563.391,3.138.926,6.305,1.59,9.415.66,3.089,1.465,6.2,2.393,9.256.922,3.034,1.991,6.091,3.177,9.087,1.179,2.978,2.5,5.976,3.94,8.908s3,5.852,4.683,8.719a149.533,149.533,0,0,0,11.516,16.831,177.377,177.377,0,0,0,14.251,15.952,211.917,211.917,0,0,0,16.825,14.992c5.982,4.8,12.456,9.492,19.241,13.951,6.764,4.445,14,8.761,21.5,12.828s15.433,7.975,23.594,11.623,16.764,7.133,25.531,10.338c8.8,3.217,17.99,6.236,27.309,8.971,9.375,2.751,19.108,5.282,28.928,7.522,9.9,2.258,20.122,4.274,30.388,5.992,10.368,1.736,21.029,3.21,31.687,4.381,10.783,1.185,21.828,2.09,32.828,2.688,11.145.607,22.521.914,33.81.914,7.093,0,14.3-.121,21.418-.361,2.363-.079,4.755-.173,7.11-.279a602.339,602.339,0,0,1-96.045,50.947c-8.8,3.73-17.864,7.346-26.94,10.75-9.16,3.435-18.574,6.743-27.978,9.832-9.5,3.12-19.241,6.1-28.95,8.853-9.818,2.785-19.863,5.413-29.856,7.813-14.125,3.392-28.473,6.4-42.646,8.954-13.961,2.512-28.087,4.635-41.987,6.312-13.714,1.654-27.534,2.911-41.075,3.737C324.719,482.693,311.292,483.107,298.2,483.107Z" transform="translate(0 0)" fill="#cf95d3"/>
      </g>
      <g id="Group_9932" data-name="Group 9932" transform="translate(467.658 591.306)">
        <g id="Group_9922" data-name="Group 9922" transform="translate(22.787 52.492)">
          <g id="Group_9921" data-name="Group 9921">
            <g id="Group_9920" data-name="Group 9920">
              <rect id="Rectangle_3502" data-name="Rectangle 3502" width="6.358" height="25.961" fill="#b072b4"/>
            </g>
          </g>
        </g>
        <g id="Group_9925" data-name="Group 9925" transform="translate(22.79 52.492)">
          <g id="Group_9924" data-name="Group 9924">
            <g id="Group_9923" data-name="Group 9923">
              <rect id="Rectangle_3503" data-name="Rectangle 3503" width="2.342" height="24.838" fill="#97599b"/>
            </g>
          </g>
        </g>
        <g id="Group_9928" data-name="Group 9928" transform="translate(0 0.268)">
          <g id="Group_9927" data-name="Group 9927">
            <g id="Group_9926" data-name="Group 9926">
              <path id="Path_7909" data-name="Path 7909" d="M276.5,120.224c.052-.191.1-.385.156-.573a7.839,7.839,0,0,1,4.756-14.9,13.484,13.484,0,1,1,26.237-2.465,9.741,9.741,0,0,1,2.133,14.494,8.3,8.3,0,0,1,2.322,5.765c0,.146-.015.289-.022.434a7.144,7.144,0,0,1-4.5,13.554A11.686,11.686,0,0,1,284.61,140.8a11.818,11.818,0,1,1-8.1-20.58Z" transform="translate(-264.864 -87.223)" fill="#b072b4"/>
            </g>
          </g>
        </g>
        <g id="Group_9931" data-name="Group 9931" transform="translate(15.888)">
          <g id="Group_9930" data-name="Group 9930">
            <g id="Group_9929" data-name="Group 9929">
              <path id="Path_7910" data-name="Path 7910" d="M313.263,131.126c.007-.145.021-.288.021-.434a8.3,8.3,0,0,0-2.325-5.765,9.733,9.733,0,0,0-2.136-14.494,13.658,13.658,0,0,0,.1-1.565,13.49,13.49,0,0,0-24.6-7.654c-.016-.273-.031-.546-.031-.823a13.493,13.493,0,1,1,26.889,1.566,9.731,9.731,0,0,1,2.136,14.493,8.3,8.3,0,0,1,2.326,5.765c0,.146-.015.289-.022.434A7.12,7.12,0,0,1,317.41,135.1,7.158,7.158,0,0,0,313.263,131.126Z" transform="translate(-284.289 -86.897)" fill="#a368a7"/>
            </g>
          </g>
        </g>
      </g>
      <g id="Group_9945" data-name="Group 9945" transform="translate(571.778 576.39)">
        <g id="Group_9935" data-name="Group 9935" transform="translate(10.433 24.034)">
          <g id="Group_9934" data-name="Group 9934">
            <g id="Group_9933" data-name="Group 9933">
              <rect id="Rectangle_3504" data-name="Rectangle 3504" width="2.911" height="11.886" fill="#b072b4"/>
            </g>
          </g>
        </g>
        <g id="Group_9938" data-name="Group 9938" transform="translate(10.434 24.034)">
          <g id="Group_9937" data-name="Group 9937">
            <g id="Group_9936" data-name="Group 9936">
              <rect id="Rectangle_3505" data-name="Rectangle 3505" width="1.072" height="11.372" fill="#97599b"/>
            </g>
          </g>
        </g>
        <g id="Group_9941" data-name="Group 9941" transform="translate(0 0.123)">
          <g id="Group_9940" data-name="Group 9940">
            <g id="Group_9939" data-name="Group 9939">
              <path id="Path_7911" data-name="Path 7911" d="M270.194,102.333c.024-.088.044-.176.071-.262a3.589,3.589,0,0,1,2.178-6.824,6.174,6.174,0,1,1,12.013-1.129,4.46,4.46,0,0,1,.976,6.636,3.8,3.8,0,0,1,1.063,2.639c0,.067-.007.132-.01.2a3.271,3.271,0,0,1-2.062,6.206,5.35,5.35,0,0,1-10.519,1.957,5.411,5.411,0,1,1-3.711-9.423Z" transform="translate(-264.864 -87.223)" fill="#b072b4"/>
            </g>
          </g>
        </g>
        <g id="Group_9944" data-name="Group 9944" transform="translate(7.274)">
          <g id="Group_9943" data-name="Group 9943">
            <g id="Group_9942" data-name="Group 9942">
              <path id="Path_7912" data-name="Path 7912" d="M297.555,107.147c0-.066.01-.132.01-.2a3.8,3.8,0,0,0-1.064-2.639,4.456,4.456,0,0,0-.978-6.636,6.257,6.257,0,0,0,.045-.717,6.176,6.176,0,0,0-11.264-3.5c-.008-.125-.014-.25-.014-.377a6.178,6.178,0,1,1,12.311.717,4.455,4.455,0,0,1,.978,6.636,3.8,3.8,0,0,1,1.065,2.639c0,.067-.007.132-.01.2a3.26,3.26,0,0,1,.821,5.7A3.277,3.277,0,0,0,297.555,107.147Z" transform="translate(-284.289 -86.897)" fill="#a368a7"/>
            </g>
          </g>
        </g>
      </g>
      <g id="Group_9951" data-name="Group 9951" transform="translate(709.46 485.15)">
        <g id="Group_9946" data-name="Group 9946" transform="translate(0 10.903)">
          <rect id="Rectangle_3506" data-name="Rectangle 3506" width="33.232" height="3.836" transform="translate(36.682 0)" fill="#c184c5"/>
          <path id="Path_7913" data-name="Path 7913" d="M35.422,21.844h1.689V3.629h-.217V3.073h-.675V1.111h.675V0H2.53a.556.556,0,0,0-.556.556V3.629H0V43.244H37.111V28.2H35.422ZM30.658,1.111h2.113V3.073H30.658Zm-8.338,0h2.113V3.073H22.32Zm-8.339,0h2.113V3.073H13.981Zm-8.338,0H7.755V3.073H5.643ZM4.976,3.073H3.085V1.111H4.976Zm5.078,34.985H5.136V31.293h4.917Zm0-11.239H5.136V20.054h4.917Zm0-11.239H5.136V8.815h4.917Zm.481-12.507H8.422V1.111h2.113ZM11.2,1.111h2.113V3.073H11.2Zm6.579,36.946H12.863V31.293h4.917Zm0-11.239H12.863V20.054h4.917Zm0-11.239H12.863V8.815h4.917ZM18.873,3.073H16.761V1.111h2.112Zm.667-1.961h2.113V3.073H19.54Zm5.967,36.946H20.59V31.293h4.917Zm0-11.239H20.59V20.054h4.917Zm0-11.239H20.59V8.815h4.917ZM27.212,3.073H25.1V1.111h2.113Zm.667-1.961h2.112V3.073H27.879Zm5.356,36.946H28.317V31.293h4.918Zm0-11.239H28.317V20.054h4.918Zm0-11.239H28.317V8.815h4.918Zm.2-14.468h2.113V3.073H33.438Z" transform="translate(0 20.793)" fill="#c184c5"/>
          <path id="Path_7914" data-name="Path 7914" d="M35.136,3.629V.556A.556.556,0,0,0,34.58,0H0V1.111H1.186V3.073H0V21.844H1.689V28.2H0V43.244H37.109V3.629ZM29.647,1.111H31.76V3.073H29.647Zm-8.338,0h2.112V3.073H21.309Zm-8.339,0h2.113V3.073H12.971Zm-8.338,0H6.745V3.073H4.632Zm-2.78,0H3.965V3.073H1.852Zm6.94,36.946H3.875V31.293H8.793Zm0-11.239H3.875V20.054H8.793Zm0-11.239H3.875V8.815H8.793ZM9.525,3.073H7.412V1.111H9.525Zm.667-1.961H12.3V3.073H10.192ZM16.52,38.058H11.6V31.293H16.52Zm0-11.239H11.6V20.054H16.52Zm0-11.239H11.6V8.815H16.52ZM17.863,3.073H15.75V1.111h2.113Zm.667-1.961h2.113V3.073H18.53Zm5.717,36.946H19.33V31.293h4.917Zm0-11.239H19.33V20.054h4.917Zm0-11.239H19.33V8.815h4.917ZM26.2,3.073H24.088V1.111H26.2Zm.667-1.961h2.113V3.073H26.867Zm5.108,36.946H27.057V31.293h4.918Zm0-11.239H27.057V20.054h4.918Zm0-11.239H27.057V8.815h4.918ZM34.024,3.073h-1.6V1.111h1.6Z" transform="translate(69.485 20.793)" fill="#c184c5"/>
          <path id="Path_7915" data-name="Path 7915" d="M0,37.54H29.854V0H0Zm24.322-1.759H19.405V29.016h4.917Zm0-11.239H19.405V17.777h4.917Zm-9.4-22.726A6.146,6.146,0,1,1,8.781,7.963,6.146,6.146,0,0,1,14.926,1.817ZM5.531,17.777h4.917v6.766H5.531Zm0,11.239h4.917v6.765H5.531Z" transform="translate(38.371 5.096)" fill="#c184c5"/>
          <rect id="Rectangle_3507" data-name="Rectangle 3507" width="33.232" height="3.835" transform="translate(36.682 43.896)" fill="#c184c5"/>
          <path id="Path_7916" data-name="Path 7916" d="M3.216,2.779c.009.007.02.009.029.015l.03.015a.337.337,0,0,0,.133.032h0a.33.33,0,0,0,.133-.032l.029-.014c.01-.006.02-.008.029-.015L6.677.606A.333.333,0,1,0,6.292.061L3.408,2.1.526.061A.333.333,0,1,0,.141.606Z" transform="translate(49.889 10.552)" fill="#c184c5"/>
          <path id="Path_7917" data-name="Path 7917" d="M0,15.045H29.854V0H0ZM20.474,3.413h4.287V13.6H20.474Zm-4.918,0h3.658V13.6H15.556Zm-4.917,0H14.3V13.6H10.639Zm-5.548,0H9.379V13.6H5.092Z" transform="translate(38.371 48.992)" fill="#c184c5"/>
        </g>
        <g id="Group_9950" data-name="Group 9950" transform="translate(37.785 0)">
          <g id="Group_9947" data-name="Group 9947" transform="translate(10.982 3.387)">
            <path id="Path_7918" data-name="Path 7918" d="M2364.841,168.454c.005-.268.006-.536.008-.8V167.6c0-.681.007-1.385.067-2.084a1.455,1.455,0,0,1,.488-1.009,1.151,1.151,0,0,1,.876-.243c.453.052.994.335,1,1.386,0,.461,0,.921.006,1.382v.059c0,.489,0,.977.007,1.466.014,1.182.336,1.588,1.321,1.67,1.276.107,1.71-.211,1.939-1.412a14.8,14.8,0,0,0,.114-3.375l-.01-.251c-.06-1.473-.35-2.361-.913-2.793-.589-.452-1.562-.495-3.156-.138a1.788,1.788,0,0,0-.468.166,1.683,1.683,0,0,1-1.863-.084,1.829,1.829,0,0,0-1.778-.187,1.87,1.87,0,0,0-.961,1.555,12.688,12.688,0,0,0-.029,1.648c.007.268.014.532.014.8a.451.451,0,0,1-.016.118q0,.316-.008.633c-.008.531-.017,1.081.012,1.612.073,1.372.479,1.758,1.815,1.715C2364.473,170.2,2364.816,169.8,2364.841,168.454Z" transform="translate(-2361.477 -162.003)" fill="url(#linear-gradient)"/>
            <path id="Path_7919" data-name="Path 7919" d="M2404.866,189.436c.9.076,1.386-.063,1.671-.578-2,.188-1.524-3.413-1.9-4.6a1.875,1.875,0,0,0-3.658.367l.157.521c.008-.142.017-.283.03-.424a1.456,1.456,0,0,1,.488-1.009,1.151,1.151,0,0,1,.876-.243c.453.052.994.335,1,1.386.005.461.006.921.006,1.382v.059c0,.489,0,.977.007,1.466C2403.559,188.948,2403.88,189.354,2404.866,189.436Z" transform="translate(-2397.723 -181.209)" fill="url(#linear-gradient-2)"/>
          </g>
          <g id="Group_9948" data-name="Group 9948" transform="translate(20.924)">
            <path id="Path_7920" data-name="Path 7920" d="M2492.085,121.189a1.641,1.641,0,0,0-2.224.281,18.787,18.787,0,0,0-1.6,1.839l-.046.057a.869.869,0,0,1-1.539.009c-.48-.576-1.038-1.185-1.706-1.865a1.378,1.378,0,0,0-1.025-.483,1.659,1.659,0,0,0-.782.247,1.812,1.812,0,0,0-.943,1.181,1.686,1.686,0,0,0,.409,1.368c.791,1,1.675,1.964,2.441,2.789a2.458,2.458,0,0,1,.67,1.736c.005.244,0,.49,0,.735a8.262,8.262,0,0,0,.172,2.121,1.456,1.456,0,0,0,1.7,1.3,1.563,1.563,0,0,0,1.7-1.447,10.461,10.461,0,0,0,.08-2.634,2.737,2.737,0,0,1,.643-1.977c.793-.977,1.631-2.021,2.389-3.093A1.38,1.38,0,0,0,2492.085,121.189Z" transform="translate(-2482.2 -120.873)" fill="url(#linear-gradient-3)"/>
            <path id="Path_7921" data-name="Path 7921" d="M2535.3,121.061a1.67,1.67,0,0,0-2,.421,18.81,18.81,0,0,0-1.6,1.839l-.045.057a1.059,1.059,0,0,1-.758.47,1.049,1.049,0,0,1-.782-.461q-.242-.29-.513-.594l-.069.04s1.393,2.026,1.92,1.953A14.472,14.472,0,0,0,2535.3,121.061Z" transform="translate(-2525.642 -120.884)" fill="url(#linear-gradient-4)"/>
            <path id="Path_7922" data-name="Path 7922" d="M2525.388,206.155a10.78,10.78,0,0,0-1.855-5.023,2.888,2.888,0,0,1,.141.865c.006.244,0,.49,0,.735a8.219,8.219,0,0,0,.172,2.121C2524.09,205.782,2524.5,206.136,2525.388,206.155Z" transform="translate(-2520.128 -194.522)" fill="url(#linear-gradient-5)"/>
          </g>
          <g id="Group_9949" data-name="Group 9949" transform="translate(0 0.67)">
            <path id="Path_7923" data-name="Path 7923" d="M2228.284,137.3a14.455,14.455,0,0,0,.522,1.905.515.515,0,0,0,.4.369,7.83,7.83,0,0,0,3.621.316l.024,0,.049,0a5.842,5.842,0,0,0,2.774-.8,3.146,3.146,0,0,0,1.614-1.787c.4-1.267.275-2.041-.438-2.671a4.6,4.6,0,0,0-2-1.025l-.144-.035a3.912,3.912,0,0,1-1.08-.377l-.028-.016a.981.981,0,0,1-.6-.861c.006-.284.139-.649.74-.779.03-.006.045-.009.059-.014a8.061,8.061,0,0,1,2.95-.307,1.127,1.127,0,0,0,.255-.007,1.1,1.1,0,0,0,.007-.247,14.173,14.173,0,0,0-.189-1.568c-.045-.265-.045-.265-.367-.283l-.487-.028-.054,0a22.071,22.071,0,0,0-2.475-.056,8.486,8.486,0,0,0-3.769.929,2.734,2.734,0,0,0-1.536,2.557,2.786,2.786,0,0,0,1.687,2.643c.593.3,1.231.541,1.849.779l.185.068a.68.68,0,0,1,.563.614.736.736,0,0,1-.547.773l-.022.009a1.559,1.559,0,0,1-.365.09A6.153,6.153,0,0,1,2228.284,137.3Z" transform="translate(-2228.127 -129.005)" fill="url(#linear-gradient-6)"/>
            <path id="Path_7924" data-name="Path 7924" d="M2284.1,159.2c.4-1.267.275-2.041-.438-2.671a4.6,4.6,0,0,0-2-1.025l-.144-.035a3.925,3.925,0,0,1-1.08-.377l-.028-.016a.98.98,0,0,1-.6-.861c.006-.284.139-.649.74-.779.03-.006.045-.009.058-.013a8.065,8.065,0,0,1,2.95-.307,1.121,1.121,0,0,0,.255-.007.08.08,0,0,0,0-.008h-.009s-3.8-.931-4.559.974c-.424,1.063.537,2.07,1.514,2.444.776.3,1.844.242,2.38.979a1.806,1.806,0,0,1,.262,1.331,3.236,3.236,0,0,1-1.615,2.5,7.391,7.391,0,0,0,.7-.339A3.147,3.147,0,0,0,2284.1,159.2Z" transform="translate(-2274.947 -150.908)" fill="url(#linear-gradient-7)"/>
            <path id="Path_7925" data-name="Path 7925" d="M2234.745,223.213a.758.758,0,0,1-.545.619l-.022.009a1.567,1.567,0,0,1-.365.09,6.21,6.21,0,0,1-3.141-.168C2234.762,225.648,2234.906,224.068,2234.745,223.213Z" transform="translate(-2230.463 -215.455)" fill="url(#linear-gradient-8)"/>
          </g>
        </g>
      </g>
    </g>
  </g>
</svg>
