<svg xmlns="http://www.w3.org/2000/svg" xmlns:xlink="http://www.w3.org/1999/xlink" width="2806" height="2838" viewBox="0 0 2806 2838">
  <defs>
    <clipPath id="clip-path">
      <rect id="Rectangle_3492" data-name="Rectangle 3492" width="2806" height="2838" transform="translate(-440 -192)" fill="#fff" stroke="#707070" stroke-width="1"/>
    </clipPath>
    <linearGradient id="linear-gradient" x1="-0.798" y1="25.574" x2="0.311" y2="25.574" gradientUnits="objectBoundingBox">
      <stop offset="0" stop-color="#a564b6"/>
      <stop offset="1" stop-color="#e1a2f3"/>
    </linearGradient>
    <linearGradient id="linear-gradient-2" x1="-1.262" y1="32.102" x2="-0.075" y2="32.102" gradientUnits="objectBoundingBox">
      <stop offset="0" stop-color="#e1a2f3"/>
      <stop offset="1" stop-color="#a564b6"/>
    </linearGradient>
    <linearGradient id="linear-gradient-3" x1="0.015" y1="-1.022" x2="1.015" y2="-1.022" xlink:href="#linear-gradient"/>
    <linearGradient id="linear-gradient-4" x1="0.027" y1="-4.035" x2="1.031" y2="-4.035" xlink:href="#linear-gradient-2"/>
    <linearGradient id="linear-gradient-5" x1="0.048" y1="-3.032" x2="1.01" y2="-3.032" xlink:href="#linear-gradient-2"/>
    <linearGradient id="linear-gradient-6" x1="1.032" y1="27.783" x2="2.168" y2="27.783" xlink:href="#linear-gradient"/>
    <linearGradient id="linear-gradient-7" x1="1.84" y1="35.751" x2="3.116" y2="35.751" xlink:href="#linear-gradient-2"/>
    <linearGradient id="linear-gradient-8" x1="2.927" y1="209.187" x2="3.845" y2="209.187" xlink:href="#linear-gradient-2"/>
    <clipPath id="clip-path-2">
      <rect id="Rectangle_3509" data-name="Rectangle 3509" width="2859" height="1717" transform="translate(-572.565 887.401)" fill="#fff" stroke="#707070" stroke-width="1"/>
    </clipPath>
  </defs>
  <g id="Mask_Group_9" data-name="Mask Group 9" transform="translate(440 192)" clip-path="url(#clip-path)">
    <g id="Group_7622" data-name="Group 7622" transform="translate(-17.434 -12.401)">
      <g id="Group_4418" data-name="Group 4418" transform="translate(-890.911 1433.863) rotate(-10)">
        <g id="Group_4408" data-name="Group 4408" transform="translate(131.632 2501.079) rotate(17)">
          <ellipse id="Ellipse_33" data-name="Ellipse 33" cx="106.315" cy="105.352" rx="106.315" ry="105.352" transform="translate(120.265 0)" fill="#d7b3e2"/>
          <circle id="Ellipse_34" data-name="Ellipse 34" cx="105.352" cy="105.352" r="105.352" transform="translate(0 79.856)" fill="#d7b3e2"/>
          <ellipse id="Ellipse_35" data-name="Ellipse 35" cx="105.833" cy="104.871" rx="105.833" ry="104.871" transform="translate(243.417 40.409)" fill="#d7b3e2"/>
          <ellipse id="Ellipse_36" data-name="Ellipse 36" cx="106.315" cy="105.833" rx="106.315" ry="105.833" transform="translate(120.265 127)" fill="#d7b3e2"/>
        </g>
        <text id="_2021_華南銀行版權所有" data-name="© 2021 華南銀行版權所有" transform="translate(1032.499 2812.193)" fill="#fff" font-size="11" font-family="Lato-Regular, Lato"><tspan x="0" y="0">© 2021 </tspan><tspan y="0" font-family="PingFangTC-Regular, PingFang TC">華南銀行版權所有</tspan></text>
        <g id="Group_6182" data-name="Group 6182" transform="translate(343.075 -527.932)">
          <rect id="Rectangle_3491" data-name="Rectangle 3491" width="3789" height="1857" transform="matrix(0.985, 0.174, -0.174, 0.985, -336.257, -1215.837)" fill="#ffe983"/>
          <path id="Union_2" data-name="Union 2" d="M-3077.2,2792.679a144.83,144.83,0,0,1-42.363,6.294c-76.862,0-139.783-59.892-144.938-135.7a145.542,145.542,0,0,1-66.707,16.073A145.721,145.721,0,0,1-3472.8,2568.72a144.7,144.7,0,0,1-45.084,7.154,144.378,144.378,0,0,1-91.957-32.91,111.165,111.165,0,0,1-98.521,59.415,111.164,111.164,0,0,1-101.725-66.039,110.976,110.976,0,0,1-73.382,27.553,111.137,111.137,0,0,1-104.405-72.666,109.476,109.476,0,0,1-72.625,27.445,109.557,109.557,0,0,1-35.8-5.973,124.334,124.334,0,0,1-95.777,44.9,125.359,125.359,0,0,1-21.441-1.838c-9.85,58.925-60.9,103.823-122.4,103.823a123.956,123.956,0,0,1-106.657-60.842,125.033,125.033,0,0,1-35.256,5.039c-68.812,0-124.595-55.567-124.595-124.114s55.783-124.114,124.595-124.114a125.909,125.909,0,0,1,20.988,1.753,124.166,124.166,0,0,1,120.925-96.041,123.991,123.991,0,0,1,102.533,54.154,124.409,124.409,0,0,1,41.305-7.01,124.014,124.014,0,0,1,60.1,15.425,109.434,109.434,0,0,1,71.479-26.451,110.229,110.229,0,0,1,103.567,72.845,110.989,110.989,0,0,1,73.463-27.625,111.165,111.165,0,0,1,101.726,66.037,110.974,110.974,0,0,1,73.381-27.552,111.047,111.047,0,0,1,49.979,11.794c16.4-62.466,73.089-108.534,140.5-108.534a145.66,145.66,0,0,1,25.182,2.181c15.359-63.622,72.994-110.9,141.747-110.9a145.887,145.887,0,0,1,120.378,63.125,145.045,145.045,0,0,1,48.474-8.283,145.28,145.28,0,0,1,145.28,145.28,145.6,145.6,0,0,1-3.97,33.875c.9-.016,1.786-.025,2.687-.025a147.607,147.607,0,0,1,25.023,2.125,146.031,146.031,0,0,1,60.449-13,145.863,145.863,0,0,1,114.184,54.788,144.572,144.572,0,0,1,102.167-42.134,145.641,145.641,0,0,1,25.182,2.183c15.364-63.616,73-110.9,141.746-110.9a145.885,145.885,0,0,1,120.378,63.124,145.054,145.054,0,0,1,48.476-8.283,145.28,145.28,0,0,1,145.28,145.28,144.87,144.87,0,0,1-10.823,55.123,144.729,144.729,0,0,1,36.835,96.679,145.28,145.28,0,0,1-145.28,145.28,145.048,145.048,0,0,1-115.358-56.957,145.421,145.421,0,0,1-79.509,23.5,145.7,145.7,0,0,1-117.518-59.316,144.752,144.752,0,0,1-96.908,37.042,146.23,146.23,0,0,1-25.2-2.177,145.669,145.669,0,0,1-143.652,120.52A145.775,145.775,0,0,1-3077.2,2792.679Zm-108.631-269.217c1.631-.841,3.288-1.655,4.953-2.434-.406,0-.818,0-1.226,0-1.312,0-2.625-.017-3.928-.052C-3185.956,2521.809-3185.89,2522.629-3185.83,2523.462Zm-1747.078,158.253c0-68.545,55.783-124.114,124.595-124.114a125.614,125.614,0,0,1,24.3,2.359,124.577,124.577,0,0,1,100.3-50.465c68.813,0,124.6,55.567,124.6,124.114s-55.783,124.114-124.6,124.114a125.609,125.609,0,0,1-24.3-2.359,124.576,124.576,0,0,1-100.3,50.465C-4877.125,2805.829-4932.908,2750.261-4932.908,2681.715Zm1245.045-399.529a44.782,44.782,0,0,1-28.346-32.047,44.781,44.781,0,0,1-13.646-2.683,44.813,44.813,0,0,1-26.782-57.438,44.811,44.811,0,0,1,57.436-26.782,45.02,45.02,0,0,1,7.007,3.251,44.833,44.833,0,0,1,52.843-17.582,44.778,44.778,0,0,1,28.21,31.474,45.112,45.112,0,0,1,14.9,2.736,44.6,44.6,0,0,1,26.933,57.027,44.6,44.6,0,0,1-57.288,26.375,45.507,45.507,0,0,1-7.437-3.492,44.892,44.892,0,0,1-38.5,21.874A44.706,44.706,0,0,1-3687.863,2282.186ZM-4199.3,2203.4a23.189,23.189,0,0,1-5.52.663,23.817,23.817,0,0,1-23.571-24.054,23.816,23.816,0,0,1,23.571-24.053,23.325,23.325,0,0,1,3.295.233,24.062,24.062,0,0,1,23.164-17.55,24.039,24.039,0,0,1,20.5,11.459,24.4,24.4,0,0,1,9.329-1.839,23.817,23.817,0,0,1,24.053,23.573,23.817,23.817,0,0,1-24.053,23.572,24.562,24.562,0,0,1-5.973-.733,24.057,24.057,0,0,1-23.853,20.937A24.044,24.044,0,0,1-4199.3,2203.4Z" transform="translate(4932.908 -2133.579)" fill="#fff9dd"/>
        </g>
      </g>
      <ellipse id="Ellipse_32" data-name="Ellipse 32" cx="1123.226" cy="364.218" rx="1123.226" ry="364.218" transform="matrix(0.978, -0.208, 0.208, 0.978, -855.688, 1186.079)" fill="#c184c5"/>
      <path id="Path_6283" data-name="Path 6283" d="M8163.774-1452.444s-1057.6-231.732-1603.052-188.746S4200.374-940.006,4200.374-940.006l-52.7,1069.637,4100.38,49.43Z" transform="translate(-5380 2512.14)" fill="#c184c5"/>
      <path id="Path_7163" data-name="Path 7163" d="M6387.349-1643.517l30.553,16.891,87.17,12.365,115.325-29.256Z" transform="translate(-5521 2523)" fill="#c184c5"/>
      <path id="Path_6285" data-name="Path 6285" d="M7924.058-1537.35S6987-1750.144,6732-1537.35s-147.621,280.512-105.345,312.815S7692.452-1196.364,7822.2-832.95,7924.058-1537.35,7924.058-1537.35Z" transform="matrix(0.999, 0.035, -0.035, 0.999, -5558.28, 2267.348)" opacity="0.096"/>
      <g id="Group_7522" data-name="Group 7522" transform="translate(18.785 993.567)">
        <g id="Group_7512" data-name="Group 7512" transform="translate(74.227 170.988)">
          <g id="Group_7511" data-name="Group 7511">
            <g id="Group_7510" data-name="Group 7510">
              <rect id="Rectangle_3406" data-name="Rectangle 3406" width="20.71" height="84.566" fill="#b072b4"/>
            </g>
          </g>
        </g>
        <g id="Group_7515" data-name="Group 7515" transform="translate(74.236 170.988)">
          <g id="Group_7514" data-name="Group 7514">
            <g id="Group_7513" data-name="Group 7513">
              <rect id="Rectangle_3407" data-name="Rectangle 3407" width="7.628" height="80.909" fill="#97599b"/>
            </g>
          </g>
        </g>
        <g id="Group_7518" data-name="Group 7518" transform="translate(0 0.873)">
          <g id="Group_7517" data-name="Group 7517">
            <g id="Group_7516" data-name="Group 7516">
              <path id="Path_6281" data-name="Path 6281" d="M302.783,194.721c.169-.624.313-1.255.508-1.866a25.536,25.536,0,0,1,15.493-48.546,43.924,43.924,0,1,1,85.466-8.03,31.729,31.729,0,0,1,6.947,47.213,27.042,27.042,0,0,1,7.564,18.778c0,.476-.048.942-.072,1.413a23.27,23.27,0,0,1-14.669,44.151,38.066,38.066,0,0,1-74.835,13.925,38.495,38.495,0,1,1-26.4-67.038Z" transform="translate(-264.864 -87.223)" fill="#b072b4"/>
            </g>
          </g>
        </g>
        <g id="Group_7521" data-name="Group 7521" transform="translate(51.755)">
          <g id="Group_7520" data-name="Group 7520">
            <g id="Group_7519" data-name="Group 7519">
              <path id="Path_6282" data-name="Path 6282" d="M378.668,230.968c.024-.471.07-.937.07-1.413a27.024,27.024,0,0,0-7.573-18.778,31.706,31.706,0,0,0-6.957-47.213,44.52,44.52,0,0,0,.319-5.1,43.942,43.942,0,0,0-80.135-24.932c-.054-.889-.1-1.78-.1-2.682a43.953,43.953,0,1,1,87.588,5.1,31.7,31.7,0,0,1,6.957,47.211,27.027,27.027,0,0,1,7.575,18.778c0,.476-.048.942-.072,1.413a23.194,23.194,0,0,1,5.841,40.564A23.315,23.315,0,0,0,378.668,230.968Z" transform="translate(-284.289 -86.897)" fill="#a368a7"/>
            </g>
          </g>
        </g>
      </g>
      <g id="Group_7524" data-name="Group 7524" transform="translate(357.947 944.98)">
        <g id="Group_7512-2" data-name="Group 7512" transform="translate(33.985 78.287)">
          <g id="Group_7511-2" data-name="Group 7511">
            <g id="Group_7510-2" data-name="Group 7510">
              <rect id="Rectangle_3406-2" data-name="Rectangle 3406" width="9.482" height="38.719" fill="#b072b4"/>
            </g>
          </g>
        </g>
        <g id="Group_7515-2" data-name="Group 7515" transform="translate(33.989 78.287)">
          <g id="Group_7514-2" data-name="Group 7514">
            <g id="Group_7513-2" data-name="Group 7513">
              <rect id="Rectangle_3407-2" data-name="Rectangle 3407" width="3.493" height="37.044" fill="#97599b"/>
            </g>
          </g>
        </g>
        <g id="Group_7518-2" data-name="Group 7518" transform="translate(0 0.4)">
          <g id="Group_7517-2" data-name="Group 7517">
            <g id="Group_7516-2" data-name="Group 7516">
              <path id="Path_6281-2" data-name="Path 6281" d="M282.225,136.441c.077-.286.143-.575.233-.854a11.692,11.692,0,0,1,7.093-22.227,20.111,20.111,0,1,1,39.131-3.677,14.527,14.527,0,0,1,3.181,21.617,12.381,12.381,0,0,1,3.463,8.6c0,.218-.022.431-.033.647a10.654,10.654,0,0,1-6.716,20.215,17.429,17.429,0,0,1-34.263,6.375,17.625,17.625,0,1,1-12.088-30.693Z" transform="translate(-264.864 -87.223)" fill="#b072b4"/>
            </g>
          </g>
        </g>
        <g id="Group_7521-2" data-name="Group 7521" transform="translate(23.696)">
          <g id="Group_7520-2" data-name="Group 7520">
            <g id="Group_7519-2" data-name="Group 7519">
              <path id="Path_6282-2" data-name="Path 6282" d="M327.5,152.86c.011-.216.032-.429.032-.647a12.373,12.373,0,0,0-3.467-8.6A14.517,14.517,0,0,0,320.88,122a20.388,20.388,0,0,0,.146-2.335,20.119,20.119,0,0,0-36.69-11.415c-.025-.407-.047-.815-.047-1.228a20.124,20.124,0,1,1,40.1,2.336,14.513,14.513,0,0,1,3.185,21.616,12.374,12.374,0,0,1,3.468,8.6c0,.218-.022.431-.033.647a10.619,10.619,0,0,1,2.674,18.572A10.675,10.675,0,0,0,327.5,152.86Z" transform="translate(-284.289 -86.897)" fill="#a368a7"/>
            </g>
          </g>
        </g>
      </g>
      <g id="Group_7526" data-name="Group 7526" transform="translate(-28.705 -99.225)">
        <g id="Group_4404" data-name="Group 4404" transform="translate(835.139 782.515)">
          <rect id="Rectangle_276" data-name="Rectangle 276" width="108.25" height="12.496" transform="translate(119.488 0)" fill="#c184c5"/>
          <path id="Path_196" data-name="Path 196" d="M115.383,71.153h5.5V11.82h-.708v-1.81h-2.2V3.62h2.2V0H8.24A1.81,1.81,0,0,0,6.43,1.81V11.82H0V140.864H120.884V91.855h-5.5ZM99.865,3.62h6.883v6.389H99.865ZM72.7,3.62h6.881v6.389H72.7Zm-27.162,0h6.883v6.389H45.542Zm-27.161,0h6.881v6.389H18.381Zm-2.172,6.389H10.05V3.62h6.159Zm16.54,113.96H16.732V101.934H32.749Zm0-36.61H16.732V65.323H32.749Zm0-36.61H16.732V28.715H32.749Zm1.567-40.74H27.435V3.62h6.881ZM36.488,3.62H43.37v6.389H36.488ZM57.919,123.969H41.9V101.934H57.919Zm0-36.61H41.9V65.323H57.919Zm0-36.61H41.9V28.715H57.919Zm3.558-40.74H54.6V3.62h6.88ZM63.649,3.62h6.883v6.389H63.649ZM83.087,123.969H67.071V101.934H83.087Zm0-36.61H67.071V65.323H83.087Zm0-36.61H67.071V28.715H83.087Zm5.555-40.74H81.758V3.62h6.884ZM90.814,3.62h6.879v6.389H90.814ZM108.26,123.969H92.239V101.934h16.02Zm0-36.61H92.239V65.323h16.02Zm0-36.61H92.239V28.715h16.02Zm.66-47.129H115.8v6.389H108.92Z" transform="translate(0 67.73)" fill="#c184c5"/>
          <path id="Path_197" data-name="Path 197" d="M114.452,11.82V1.81A1.81,1.81,0,0,0,112.642,0H0V3.62H3.862v6.389H0V71.153H5.5v20.7H0v49.009H120.88V11.82ZM96.573,3.62h6.883v6.389H96.573Zm-27.161,0h6.88v6.389h-6.88Zm-27.162,0h6.883v6.389H42.25Zm-27.161,0h6.881v6.389H15.089Zm-9.055,0h6.883v6.389H6.034ZM28.642,123.969H12.623V101.934H28.642Zm0-36.61H12.623V65.323H28.642Zm0-36.61H12.623V28.715H28.642Zm2.384-40.74H24.143V3.62h6.883ZM33.2,3.62h6.88v6.389H33.2ZM53.813,123.969H37.793V101.934H53.813Zm0-36.61H37.793V65.323H53.813Zm0-36.61H37.793V28.715H53.813Zm4.373-40.74H51.305V3.62h6.881ZM60.359,3.62H67.24v6.389H60.359ZM78.982,123.969H62.964V101.934H78.982Zm0-36.61H62.964V65.323H78.982Zm0-36.61H62.964V28.715H78.982Zm6.365-40.74H78.465V3.62h6.881ZM87.518,3.62H94.4v6.389H87.518Zm16.637,120.349H88.135V101.934h16.02Zm0-36.61H88.135V65.323h16.02Zm0-36.61H88.135V28.715h16.02Zm6.676-40.74h-5.2V3.62h5.2Z" transform="translate(226.341 67.73)" fill="#c184c5"/>
          <path id="Path_198" data-name="Path 198" d="M0,122.283H97.247V0H0Zm79.226-5.729H63.21V94.518H79.226Zm0-36.608H63.21V57.907H79.226ZM48.621,5.92A20.02,20.02,0,1,1,28.6,25.937,20.02,20.02,0,0,1,48.621,5.92Zm-30.6,51.987H34.034V79.946H18.017Zm0,36.611H34.034v22.036H18.017Z" transform="translate(124.99 16.6)" fill="#c184c5"/>
          <rect id="Rectangle_277" data-name="Rectangle 277" width="108.25" height="12.493" transform="translate(119.488 142.987)" fill="#c184c5"/>
          <path id="Path_199" data-name="Path 199" d="M10.475,9.051c.03.022.064.029.094.048s.065.033.1.049a1.1,1.1,0,0,0,.433.1h0a1.075,1.075,0,0,0,.434-.1c.033-.015.064-.029.1-.046s.067-.028.1-.048L21.748,1.974A1.086,1.086,0,1,0,20.5.2L11.1,6.835,1.712.2A1.086,1.086,0,1,0,.46,1.974Z" transform="translate(162.509 34.372)" fill="#c184c5"/>
          <path id="Path_200" data-name="Path 200" d="M0,49.009H97.247V0H0ZM66.693,11.117H80.659V44.305H66.693Zm-16.02,0H62.589V44.305H50.673Zm-16.016,0H46.567V44.305H34.656Zm-18.071,0H30.552V44.305H16.585Z" transform="translate(124.99 159.585)" fill="#c184c5"/>
        </g>
        <g id="Group_7508" data-name="Group 7508" transform="translate(958.221 747)">
          <g id="Group_7505" data-name="Group 7505" transform="translate(35.773 11.034)">
            <path id="Path_6272" data-name="Path 6272" d="M2372.437,183.014c.017-.873.021-1.746.026-2.619v-.146c.011-2.217.023-4.511.218-6.788a4.738,4.738,0,0,1,1.591-3.288,3.75,3.75,0,0,1,2.854-.791c1.474.17,3.238,1.09,3.272,4.514.016,1.5.017,3,.018,4.5v.191c0,1.592,0,3.183.024,4.774.047,3.85,1.094,5.171,4.3,5.439,4.157.348,5.569-.687,6.317-4.6a48.159,48.159,0,0,0,.372-10.995l-.034-.818c-.2-4.8-1.141-7.69-2.973-9.1-1.918-1.472-5.087-1.612-10.282-.449a5.822,5.822,0,0,0-1.522.54,5.484,5.484,0,0,1-6.07-.273,5.957,5.957,0,0,0-5.792-.608,6.093,6.093,0,0,0-3.132,5.064,41.36,41.36,0,0,0-.093,5.369c.023.873.045,1.733.044,2.59a1.449,1.449,0,0,1-.052.384q-.007,1.031-.026,2.063c-.027,1.73-.054,3.52.039,5.251.24,4.47,1.561,5.727,5.913,5.586C2371.236,188.687,2372.354,187.386,2372.437,183.014Z" transform="translate(-2361.477 -162.003)" fill="url(#linear-gradient)"/>
            <path id="Path_6273" data-name="Path 6273" d="M2413.648,204.118c2.948.247,4.515-.2,5.444-1.882-6.529.611-4.965-11.116-6.2-14.972-2.1-6.555-10.648-5.276-11.915,1.2l.512,1.7c.026-.461.056-.922.1-1.383a4.739,4.739,0,0,1,1.59-3.287,3.752,3.752,0,0,1,2.854-.791c1.474.17,3.238,1.09,3.272,4.514.016,1.5.018,3,.019,4.5v.191c0,1.592,0,3.183.023,4.774C2409.391,202.528,2410.437,203.85,2413.648,204.118Z" transform="translate(-2390.38 -177.318)" fill="url(#linear-gradient-2)"/>
          </g>
          <g id="Group_7506" data-name="Group 7506" transform="translate(68.159 0)">
            <path id="Path_6274" data-name="Path 6274" d="M2514.4,121.9c-2.238-1.648-4.945-1.3-7.243.916a61.421,61.421,0,0,0-5.2,5.99l-.148.185a2.831,2.831,0,0,1-5.015.028c-1.565-1.875-3.382-3.861-5.555-6.074a4.491,4.491,0,0,0-3.338-1.574,5.4,5.4,0,0,0-2.549.8,5.9,5.9,0,0,0-3.073,3.848,5.492,5.492,0,0,0,1.33,4.456c2.577,3.257,5.456,6.4,7.953,9.084a8.008,8.008,0,0,1,2.183,5.656c.018.8.016,1.595.012,2.394a26.874,26.874,0,0,0,.561,6.91c.83,3.2,2.275,4.308,5.524,4.242,3.234-.067,4.894-1.477,5.55-4.713a34.111,34.111,0,0,0,.26-8.581,8.918,8.918,0,0,1,2.094-6.438c2.585-3.183,5.314-6.584,7.782-10.075C2517.476,126.207,2517.106,123.9,2514.4,121.9Z" transform="translate(-2482.2 -120.873)" fill="url(#linear-gradient-3)"/>
            <path id="Path_6275" data-name="Path 6275" d="M2548.3,121.456c-2.079-1.092-4.455-.61-6.508,1.373a61.459,61.459,0,0,0-5.2,5.99l-.146.185a3.447,3.447,0,0,1-2.468,1.53,3.412,3.412,0,0,1-2.547-1.5q-.789-.945-1.67-1.934l-.224.132s4.535,6.6,6.253,6.362C2537.235,133.391,2545.083,126.289,2548.3,121.456Z" transform="translate(-2516.841 -120.882)" fill="url(#linear-gradient-4)"/>
            <path id="Path_6276" data-name="Path 6276" d="M2529.577,217.494c-.534-7.314-4.106-13.5-6.044-16.362a9.426,9.426,0,0,1,.458,2.818c.019.8.016,1.6.013,2.394a26.831,26.831,0,0,0,.561,6.91C2525.349,216.278,2526.687,217.433,2529.577,217.494Z" transform="translate(-2512.445 -179.601)" fill="url(#linear-gradient-5)"/>
          </g>
          <g id="Group_7507" data-name="Group 7507" transform="translate(0 2.182)">
            <path id="Path_6277" data-name="Path 6277" d="M2228.638,156.012a47.043,47.043,0,0,0,1.7,6.206,1.677,1.677,0,0,0,1.286,1.2,25.512,25.512,0,0,0,11.8,1.029l.077-.009c.052-.005.105-.008.159-.008a19.029,19.029,0,0,0,9.036-2.59,10.246,10.246,0,0,0,5.257-5.822c1.309-4.126.9-6.648-1.428-8.7a14.984,14.984,0,0,0-6.513-3.337l-.468-.113a12.768,12.768,0,0,1-3.518-1.229l-.091-.052a3.191,3.191,0,0,1-1.95-2.806c.019-.924.453-2.115,2.408-2.537.1-.021.147-.03.191-.044a26.263,26.263,0,0,1,9.609-1,3.677,3.677,0,0,0,.833-.021,3.635,3.635,0,0,0,.021-.8,46.255,46.255,0,0,0-.615-5.107c-.145-.864-.145-.864-1.2-.922-.529-.029-1.058-.061-1.588-.092l-.177-.01a71.885,71.885,0,0,0-8.061-.183c-3.583.191-8.215.708-12.279,3.025-3.408,1.943-5.044,4.667-5,8.329a9.078,9.078,0,0,0,5.5,8.608c1.93.965,4.01,1.764,6.022,2.536l.6.223a2.217,2.217,0,0,1,1.835,2,2.4,2.4,0,0,1-1.783,2.517l-.073.029a5.086,5.086,0,0,1-1.189.294C2235.724,157.114,2232.185,157.369,2228.638,156.012Z" transform="translate(-2228.127 -129.005)" fill="url(#linear-gradient-6)"/>
            <path id="Path_6278" data-name="Path 6278" d="M2295.286,173.484c1.309-4.126.9-6.648-1.428-8.7a14.978,14.978,0,0,0-6.513-3.337l-.468-.113a12.778,12.778,0,0,1-3.518-1.229l-.091-.052a3.191,3.191,0,0,1-1.95-2.805c.02-.924.454-2.115,2.408-2.537.1-.021.147-.03.191-.044a26.267,26.267,0,0,1,9.61-1,3.666,3.666,0,0,0,.832-.021c0-.008,0-.018,0-.027h-.029s-12.372-3.032-14.849,3.173c-1.382,3.463,1.749,6.743,4.931,7.963,2.528.969,6.006.787,7.752,3.188a5.884,5.884,0,0,1,.855,4.335c-.471,3.091-2.215,6.851-5.26,8.137a24.073,24.073,0,0,0,2.266-1.1A10.247,10.247,0,0,0,2295.286,173.484Z" transform="translate(-2265.461 -146.471)" fill="url(#linear-gradient-7)"/>
            <path id="Path_6279" data-name="Path 6279" d="M2243.94,223.213a2.47,2.47,0,0,1-1.775,2.017l-.073.029a5.1,5.1,0,0,1-1.188.294c-3.264.487-6.742.739-10.231-.546C2243.994,231.145,2244.464,226,2243.94,223.213Z" transform="translate(-2229.99 -197.94)" fill="url(#linear-gradient-8)"/>
          </g>
        </g>
      </g>
      <g id="Mask_Group_12" data-name="Mask Group 12" clip-path="url(#clip-path-2)">
        <g id="Group_7498" data-name="Group 7498" transform="translate(-497.281 929.057) rotate(-2)">
          <path id="Subtraction_2" data-name="Subtraction 2" d="M971.345,1573.676c-122,0-238.564-10.827-346.446-32.181-26.591-5.264-52.933-11.237-78.3-17.754s-50.37-13.739-74.353-21.47c-24.008-7.739-47.593-16.185-70.1-25.1-22.557-8.937-44.61-18.577-65.544-28.652-85.31-41.058-156.1-90.995-210.414-148.423a518.027,518.027,0,0,1-38.122-45.142,468.9,468.9,0,0,1-31.713-48.189,437.148,437.148,0,0,1-25-51.153A419.679,419.679,0,0,1,.114,1005.839a442.4,442.4,0,0,1,1.575-48.463,472.721,472.721,0,0,1,6.857-48.683c3.124-16.117,7.16-32.526,12-48.769,4.8-16.129,10.517-32.522,16.99-48.723,6.432-16.1,13.78-32.432,21.84-48.544,8.018-16.027,16.949-32.254,26.546-48.233,82.742-137.752,221.943-270.261,402.554-383.2,91.294-57.089,192.053-108.464,299.478-152.7,27.2-11.2,55.174-22.076,83.149-32.326,28.224-10.342,57.193-20.319,86.1-29.655,29.184-9.425,59.085-18.448,88.872-26.818,30.1-8.457,60.871-16.469,91.464-23.815,46.012-11.048,92.75-20.862,138.914-29.168,45.481-8.183,91.5-15.1,136.772-20.559,44.679-5.387,89.7-9.483,133.8-12.173C1590.631,1.348,1634.372,0,1677.031,0c35.938,0,71.908.958,106.912,2.846-28.271,5.947-56.526,12.6-83.983,19.773-27.23,7.115-54.345,14.918-80.591,23.194-26.081,8.224-51.955,17.118-76.9,26.436-24.824,9.272-49.357,19.2-72.917,29.5-23.479,10.268-46.571,21.164-68.634,32.387-22.025,11.2-43.576,23.01-64.056,35.095s-40.384,24.739-59.181,37.625c-18.824,12.9-36.995,26.354-54.009,39.976-17.068,13.665-33.4,27.847-48.541,42.15-15.211,14.369-29.6,29.221-42.775,44.146a586.3,586.3,0,0,0-36.714,45.963,506.8,506.8,0,0,0-30.356,47.6,444.042,444.042,0,0,0-23.7,49.064,398,398,0,0,0-16.749,50.347,369.14,369.14,0,0,0-9.5,51.452,357.95,357.95,0,0,0-1.957,52.379c.377,10.377,1.218,20.858,2.5,31.151,1.273,10.221,3.016,20.539,5.181,30.668,2.15,10.061,4.773,20.206,7.8,30.151,3,9.881,6.485,19.841,10.348,29.6,3.839,9.7,8.157,19.465,12.834,29.018,4.652,9.5,9.785,19.061,15.255,28.4a487.091,487.091,0,0,0,37.513,54.824,577.786,577.786,0,0,0,46.42,51.962,690.3,690.3,0,0,0,54.807,48.835c19.486,15.629,40.573,30.918,62.675,45.443,22.033,14.479,45.593,28.538,70.025,41.786,24.413,13.237,50.271,25.976,76.854,37.862,26.625,11.9,54.606,23.234,83.166,33.675,28.67,10.48,58.6,20.312,88.957,29.221,30.539,8.963,62.243,17.207,94.231,24.5,32.244,7.355,65.547,13.922,98.985,19.52,33.773,5.654,68.5,10.455,103.219,14.271,35.126,3.861,71.1,6.807,106.935,8.757,36.3,1.976,73.358,2.977,110.132,2.977,23.1,0,46.576-.4,69.766-1.176,7.7-.259,15.488-.564,23.159-.907-94.341,62.123-199.6,117.958-312.858,165.956-28.666,12.149-58.191,23.93-87.755,35.016-29.839,11.189-60.5,21.965-91.137,32.027-30.948,10.165-62.676,19.867-94.3,28.838-31.982,9.071-64.7,17.634-97.252,25.449-46.012,11.048-92.749,20.861-138.914,29.168-45.475,8.183-91.49,15.1-136.767,20.559-44.673,5.387-89.689,9.482-133.8,12.172C1057.744,1572.327,1014,1573.676,971.345,1573.676Z" transform="translate(-47.761 -7.672)" fill="#cf95d3"/>
        </g>
      </g>
    </g>
  </g>
</svg>
