<svg xmlns="http://www.w3.org/2000/svg" width="302.163" height="211.829" viewBox="0 0 302.163 211.829">
  <g id="direction" transform="translate(-1263.974 -671.943)">
    <g id="Group_9213" data-name="Group 9213" transform="translate(-13.026 -19.228)">
      <ellipse id="Ellipse_173" data-name="Ellipse 173" cx="38.5" cy="7.5" rx="38.5" ry="7.5" transform="translate(1435 885)" fill="#724f74" opacity="0.414"/>
      <g id="Group_9210" data-name="Group 9210">
        <g id="Group_9198" data-name="Group 9198" transform="translate(1029.822 503.38)">
          <g id="Group_9081" data-name="Group 9081" transform="translate(432.163 170.11)">
            <path id="Rectangle_3464" data-name="Rectangle 3464" d="M6.7,0h5.5a6.7,6.7,0,0,1,6.7,6.7v195.56a0,0,0,0,1,0,0H0a0,0,0,0,1,0,0V6.7A6.7,6.7,0,0,1,6.7,0Z" transform="translate(0.015 17.682)" fill="#454545"/>
          </g>
          <g id="Group_9082" data-name="Group 9082" transform="translate(433.434 316.023)" opacity="0.3">
            <path id="Path_7569" data-name="Path 7569" d="M538.523,503.248l20.825-18.731v-6.89H538.523Z" transform="translate(-538.523 -477.627)" fill="#232222" opacity="0.526"/>
          </g>
          <g id="Group_9083" data-name="Group 9083" transform="translate(432.238 221.293)" opacity="0.3">
            <path id="Path_7570" data-name="Path 7570" d="M538.523,306l20.825-18.731v-6.89H538.523Z" transform="translate(-538.523 -280.383)" fill="#232222"/>
          </g>
          <g id="Group_9214" data-name="Group 9214">
            <g id="Group_9140" data-name="Group 9140" transform="translate(339.856 260.969)">
              <g id="Group_9139" data-name="Group 9139" transform="translate(0 9.846)" opacity="0.05">
                <path id="Path_7670" data-name="Path 7670" d="M448.617,385.853l-94.39-1.255c-3.808-.053-7.08,2.51-7.309,5.723l-2.79,39.118c-.229,3.214,2.672,5.862,6.48,5.915l98.009,1.393Z" transform="translate(-344.114 -384.597)" fill="#4499c4"/>
              </g>
            </g>
          </g>
        </g>
        <g id="Group_9216" data-name="Group 9216" transform="translate(0 3)">
          <g id="Group_9197" data-name="Group 9197" transform="translate(1365.822 671.169)">
            <g id="Group_9195" data-name="Group 9195">
              <g id="Group_9141" data-name="Group 9141">
                <path id="Path_7671" data-name="Path 7671" d="M394.165,239.76l-1.005-9.467,146.672-4.4c3.807-.114,6.665-2.809,6.384-6.018L542.8,180.809c-.281-3.21-3.594-5.719-7.4-5.6l-146.765,4.4-1.067-9.353c-.248-2.167-3.34-3.243-5.217-1.813l-44.25,33.71c-3.088,2.352-2.713,6.583.774,8.734l50.434,31.1C391.467,243.311,394.4,241.972,394.165,239.76Z" transform="translate(-337 -139.79)" fill="#e76161" stroke="#2b2b2b" stroke-width="1"/>
              </g>
            </g>
          </g>
          <path id="Path_7958" data-name="Path 7958" d="M-37.9-15.84a20.708,20.708,0,0,0-3.552-3.816l-2.16,1.464a19.035,19.035,0,0,1,3.408,3.96Zm-3.072,5.808a19.953,19.953,0,0,1-2.28,3.264c-.264-1.224-.5-2.616-.7-4.056h6.24v-2.712h-6.528a59.14,59.14,0,0,1-.24-6.576h-3c.024,2.184.1,4.416.288,6.576h-4.608v-3.24c1.392-.288,2.712-.6,3.912-.96L-49.8-20.16a60.945,60.945,0,0,1-9.528,2.016,10.9,10.9,0,0,1,.816,2.4c1.224-.144,2.544-.312,3.84-.528v2.736h-4.536v2.712h4.536v3.216c-1.9.336-3.624.6-4.992.816l.7,2.88c1.272-.24,2.76-.552,4.3-.864V-1.3c0,.384-.144.5-.576.5-.432.024-1.824.048-3.168-.024a11.462,11.462,0,0,1,1.008,2.88,10.315,10.315,0,0,0,4.32-.552c.96-.456,1.3-1.224,1.3-2.784v-4.1l3.912-.792L-48.1-8.76c-1.224.216-2.472.456-3.7.672v-2.736h4.872A44.479,44.479,0,0,0-45.7-4.392a24.448,24.448,0,0,1-5.352,3.384,12.512,12.512,0,0,1,1.9,2.3,24.894,24.894,0,0,0,4.44-2.928C-43.68.72-42.336,2.16-40.584,2.16c2.184,0,3.072-1.056,3.528-5.256a7.3,7.3,0,0,1-2.352-1.632c-.12,2.832-.408,3.984-.912,3.984-.72,0-1.464-1.1-2.112-2.952a23.711,23.711,0,0,0,3.984-5.256ZM-18.816-16.3H-29.808v-1.2h10.992Zm0,3.1H-29.808v-1.224h10.992Zm2.9-6.312H-32.568v8.328h16.656ZM-22.536-3.336h7.392V-5.808h-7.392v-1.8h8.9v-2.52H-34.8v2.52h9.36v6.1a5.283,5.283,0,0,1-3.456-3c.192-.7.384-1.416.552-2.184L-31.2-7.128A10.135,10.135,0,0,1-35.664.144,11.51,11.51,0,0,1-33.5,2.136a10.8,10.8,0,0,0,3.36-3.816C-28.128,1.1-25.152,1.7-20.76,1.7h6.84a9.822,9.822,0,0,1,.96-2.712c-1.7.072-6.312.072-7.656.072-.648,0-1.3-.024-1.92-.072ZM-.648-12.48v-2.376H3.576A32.548,32.548,0,0,1,.864-12.48ZM.528-1.08c-1.944,0-2.256-.144-2.256-1.08V-4.584H8.064V-7.128H-1.7A43.681,43.681,0,0,0,2.208-9.84H10.9v-2.64H5.3a36.676,36.676,0,0,0,4.824-5.568L7.392-19.392a27.155,27.155,0,0,1-2.568,3.24v-1.3H-.408v-2.9h-2.88v2.9H-8.712v2.592h5.424v2.376h-7.584v2.64H-2.88a42.52,42.52,0,0,1-8.64,4.08A22.077,22.077,0,0,1-9.456-3.24a45.95,45.95,0,0,0,4.7-2.16v3.264C-4.752.72-3.624,1.536.384,1.536H6.456c3.312,0,4.248-.888,4.656-4.368a8.308,8.308,0,0,1-2.76-1.032C8.16-1.488,7.872-1.08,6.264-1.08Zm19.728-2.9L18.12-3.5V-8.52h1.872v-2.544H18.12v-5.184h2.448V-18.84H13.2v2.592h2.3v5.184H13.44V-8.52H15.5v5.592c-1.032.216-1.944.408-2.736.528l.5,2.64c2.112-.48,4.776-1.08,7.248-1.7Zm5.88-16.344h-2.52V-11.9c-.528-1.008-1.1-2.088-1.656-3.048l-2.088.816a42.675,42.675,0,0,1,2.64,5.616l1.1-.528c-.1,3.72-.792,6.936-4.392,9.12a8.51,8.51,0,0,1,1.752,2.064c4.56-2.808,5.16-7.152,5.16-12.048ZM32.376-1.32v-6.5H34.7v-2.544H32.376v-5.9h2.616v-2.592H26.664v2.592H29.64v5.9H26.952v2.544H29.64v6.5H25.392V1.32H35.4V-1.32Zm27.1-14.208v-2.544H51.5a11.321,11.321,0,0,0-1.08-2.4l-2.88.648a12.743,12.743,0,0,1,.72,1.752H39.192v6.72c0,3.528-.144,8.52-2.136,11.9a11.455,11.455,0,0,1,2.4,1.632c2.16-3.744,2.52-9.648,2.52-13.536v-4.176ZM46.944,1.464h6.072V-.768H46.944ZM46.536-9.048v-2.424c1.344-.048,2.76-.12,4.152-.24q.072,1.368.216,2.664Zm12.312,2.5v-2.5h-5.16c-.12-.96-.192-1.92-.24-2.928,1.728-.216,3.384-.48,4.8-.768l-1.992-2.088a77.887,77.887,0,0,1-12.408,1.224l.024.024h-.024v9.336a1.705,1.705,0,0,1-.84,1.656,7.259,7.259,0,0,1,1.008,2.28c.576-.36,1.464-.7,6.528-1.944A20.425,20.425,0,0,1,50.52-4.7l-3.984.888V-6.552h4.728c.864,4.8,2.592,8.3,5.184,8.3,1.872,0,2.76-.864,3.12-4.44A6.437,6.437,0,0,1,57.36-4.032c-.1,2.088-.264,3.072-.72,3.072-.936,0-1.944-2.3-2.568-5.592Z" transform="matrix(0.999, -0.035, 0.035, 0.999, 1462.317, 743.033)" fill="#fff"/>
          <g id="Group_9208" data-name="Group 9208" transform="translate(1259.479 613.094)">
            <g id="Group_9203" data-name="Group 9203" transform="translate(283.631 116.811)">
              <path id="Path_7771" data-name="Path 7771" d="M348.159,196.634l3.923-2.9-4.633-5.246,6.716-2.687-17.213-8.445,3.011,18.935,4.543-5.63Z" transform="translate(-335.994 -176.061)" fill="#f4d34a"/>
              <g id="Group_9202" data-name="Group 9202" transform="translate(0 0)">
                <g id="Group_9200" data-name="Group 9200" transform="translate(0 0.772)" opacity="0.2" style="mix-blend-mode: multiply;isolation: isolate">
                  <path id="Path_7772" data-name="Path 7772" d="M336.382,197.128l-3.5-22,20,9.811-7.289,2.916,4.472,5.064-5.226,3.861-3.526-5.763Zm5.1-8.681,3.779,6.178,2.62-1.935-4.794-5.428,6.144-2.458L334.8,177.724l2.524,15.873Z" transform="translate(-332.884 -175.131)"/>
                </g>
                <g id="Group_9201" data-name="Group 9201">
                  <path id="Path_7773" data-name="Path 7773" d="M336.382,193.848l-3.5-22,20,9.811-7.289,2.916,4.472,5.064-5.226,3.86-3.526-5.763Zm5.1-8.681,3.779,6.178,2.62-1.935-4.794-5.428,6.144-2.458-14.429-7.08,2.524,15.873Z" transform="translate(-332.884 -171.85)" fill="#fff"/>
                </g>
              </g>
            </g>
            <g id="Group_9207" data-name="Group 9207" transform="translate(268.464 99.862)">
              <g id="Group_9204" data-name="Group 9204" transform="translate(0 0.772)" opacity="0.2" style="mix-blend-mode: multiply;isolation: isolate">
                <path id="Path_7774" data-name="Path 7774" d="M308.964,116.881l-4.8-11.977,5.264-1.762Z" transform="translate(-295.757 -103.143)"/>
                <path id="Path_7775" data-name="Path 7775" d="M338.2,138.544l7.671-7.8,2.262,4.573Z" transform="translate(-321.779 -124.243)"/>
                <path id="Path_7776" data-name="Path 7776" d="M279.1,152.361l-8.344-6.123-2.288,3.918Z" transform="translate(-268.464 -136.091)"/>
              </g>
              <g id="Group_9206" data-name="Group 9206" transform="translate(0 0)">
                <g id="Group_9205" data-name="Group 9205">
                  <path id="Path_7777" data-name="Path 7777" d="M308.964,113.6l-4.8-11.977,5.264-1.762Z" transform="translate(-295.757 -99.862)" fill="#f4d34a"/>
                  <path id="Path_7778" data-name="Path 7778" d="M338.2,135.263l7.671-7.8,2.262,4.573Z" transform="translate(-321.779 -120.963)" fill="#f4d34a"/>
                  <path id="Path_7779" data-name="Path 7779" d="M279.1,149.081l-8.344-6.123-2.288,3.917Z" transform="translate(-268.464 -132.811)" fill="#f4d34a"/>
                </g>
              </g>
            </g>
          </g>
        </g>
        <g id="Group_9215" data-name="Group 9215" transform="translate(0 15)">
          <path id="Path_7781" data-name="Path 7781" d="M496.479,436l.852-9.482L350.607,424.48c-3.808-.053-6.709-2.7-6.48-5.915l2.79-39.118c.229-3.214,3.5-5.776,7.309-5.723l146.817,2.036.917-9.368c.212-2.171,3.287-3.3,5.186-1.9l44.787,32.992c3.126,2.3,2.819,6.539-.633,8.745l-49.926,31.9C499.234,439.5,496.28,438.212,496.479,436Z" transform="translate(1024.564 401.472)" fill="#4aabdb" stroke="#1a1a1a" stroke-width="1"/>
          <path id="Path_7959" data-name="Path 7959" d="M-37.9-15.84a20.708,20.708,0,0,0-3.552-3.816l-2.16,1.464a19.035,19.035,0,0,1,3.408,3.96Zm-3.072,5.808a19.953,19.953,0,0,1-2.28,3.264c-.264-1.224-.5-2.616-.7-4.056h6.24v-2.712h-6.528a59.14,59.14,0,0,1-.24-6.576h-3c.024,2.184.1,4.416.288,6.576h-4.608v-3.24c1.392-.288,2.712-.6,3.912-.96L-49.8-20.16a60.945,60.945,0,0,1-9.528,2.016,10.9,10.9,0,0,1,.816,2.4c1.224-.144,2.544-.312,3.84-.528v2.736h-4.536v2.712h4.536v3.216c-1.9.336-3.624.6-4.992.816l.7,2.88c1.272-.24,2.76-.552,4.3-.864V-1.3c0,.384-.144.5-.576.5-.432.024-1.824.048-3.168-.024a11.462,11.462,0,0,1,1.008,2.88,10.315,10.315,0,0,0,4.32-.552c.96-.456,1.3-1.224,1.3-2.784v-4.1l3.912-.792L-48.1-8.76c-1.224.216-2.472.456-3.7.672v-2.736h4.872A44.479,44.479,0,0,0-45.7-4.392a24.448,24.448,0,0,1-5.352,3.384,12.512,12.512,0,0,1,1.9,2.3,24.894,24.894,0,0,0,4.44-2.928C-43.68.72-42.336,2.16-40.584,2.16c2.184,0,3.072-1.056,3.528-5.256a7.3,7.3,0,0,1-2.352-1.632c-.12,2.832-.408,3.984-.912,3.984-.72,0-1.464-1.1-2.112-2.952a23.711,23.711,0,0,0,3.984-5.256ZM-18.816-16.3H-29.808v-1.2h10.992Zm0,3.1H-29.808v-1.224h10.992Zm2.9-6.312H-32.568v8.328h16.656ZM-22.536-3.336h7.392V-5.808h-7.392v-1.8h8.9v-2.52H-34.8v2.52h9.36v6.1a5.283,5.283,0,0,1-3.456-3c.192-.7.384-1.416.552-2.184L-31.2-7.128A10.135,10.135,0,0,1-35.664.144,11.51,11.51,0,0,1-33.5,2.136a10.8,10.8,0,0,0,3.36-3.816C-28.128,1.1-25.152,1.7-20.76,1.7h6.84a9.822,9.822,0,0,1,.96-2.712c-1.7.072-6.312.072-7.656.072-.648,0-1.3-.024-1.92-.072ZM-9.192-5.28A17.132,17.132,0,0,1-11.3-1.032,18.374,18.374,0,0,1-9.432.264a22.923,22.923,0,0,0,2.424-4.92Zm5.64-10.344a27.3,27.3,0,0,1-1.032,2.976H-8.04l1.728-.48a11.878,11.878,0,0,0-.792-2.5ZM.072-6.048v-2.4h-3.72V-10.3h4.1v-2.352h-2.5c.36-.744.72-1.68,1.08-2.592L-2.9-15.624h3v-2.328H-3.336c-.288-.816-.72-1.8-1.08-2.592l-2.856.7c.24.576.5,1.248.72,1.9h-4.1v2.328h3.24l-1.968.48a14.428,14.428,0,0,1,.7,2.5h-2.328V-10.3h4.608v1.848h-4.464v2.4h4.464V1.92h2.76V-6.048ZM11.16-12.432H3.912V-16.2A37.185,37.185,0,0,0,10.728-18L8.544-20.088a34.065,34.065,0,0,1-7.272,2.04V-9.5A25.948,25.948,0,0,1,.528-2.4a23.729,23.729,0,0,0-1.8-3.144L-3.144-4.536a28.993,28.993,0,0,1,1.872,3.6l1.7-1.056A9.393,9.393,0,0,1-.648.336,10.658,10.658,0,0,1,1.56,2.04C3.6-1.032,3.912-5.976,3.912-9.5v-.288H6.144V1.992H8.928V-9.792H11.16ZM26.5-8.208V-4.9H22.008V-8.208Zm2.64,5.664V-10.56H19.368v9.6h2.64V-2.544Zm1.08-12.264H18.24v2.4H30.216ZM34.44-19.2H14.088V2.088h2.784V-16.488h14.76V-1.224c0,.384-.168.528-.576.552s-1.8.024-3.072-.048a9.707,9.707,0,0,1,.984,2.832c1.992,0,3.336-.072,4.248-.552S34.44.288,34.44-1.2Zm16.848,1.848c-.336-.288-.768-.624-1.248-.96a8.781,8.781,0,0,0,1.2-1.32l-1.872-.552a8,8,0,0,1-.864.96c-.5-.288-1.008-.552-1.464-.768l-1.272,1.1c.432.216.84.456,1.3.72a10.912,10.912,0,0,1-1.824.936,11.43,11.43,0,0,1,1.488,1.272,12.186,12.186,0,0,0,1.944-1.2,12.516,12.516,0,0,1,1.248,1.008Zm-8.856,4.776h2.856v-.264a15.321,15.321,0,0,1,1.08,1.1H42.48Zm-1.68,2.9H56.16v2.856h2.832v-4.92H57.216c.192-2.232.384-5.28.5-7.8h-6v1.8h3.216l-.048.792H51.84v1.776h2.928l-.048.816h-3v1.776h2.832l-.1.84H46.68a17.627,17.627,0,0,0,1.944-1.248,15.975,15.975,0,0,1,1.392,1.176l1.44-1.248a11.585,11.585,0,0,0-1.464-1.1,10.13,10.13,0,0,0,1.272-1.44l-1.872-.552a9.139,9.139,0,0,1-.936,1.008c-.528-.288-1.032-.576-1.512-.816l-1.32,1.128c.432.24.888.5,1.344.792a15.925,15.925,0,0,1-1.68.912v-1.224H42.336l-.048-.816H45.24v-1.776H42.192l-.048-.7a23.251,23.251,0,0,0,3.288-.912l-1.176-1.656a33.381,33.381,0,0,1-4.848,1.344l.432,7.128h-1.8v4.92h2.712ZM59.3-4.56H50.328a33.6,33.6,0,0,0,4.584-2.76L53.3-8.784l-.6.144H42.264v1.992h7.7a17.5,17.5,0,0,1-2.64,1.392v.7h-9.72V-2.3h9.72V-.672c0,.288-.12.36-.5.36-.36.024-1.8.024-2.928-.024a9.244,9.244,0,0,1,.864,2.4,13.73,13.73,0,0,0,4.1-.36C49.848,1.32,50.136.7,50.136-.576V-2.3H59.3Z" transform="matrix(1, 0.017, -0.017, 1, 1485.046, 811.139)" fill="#fff"/>
          <g id="Group_9209" data-name="Group 9209" transform="translate(1383.795 779.466)">
            <g id="Group_9203-2" data-name="Group 9203" transform="translate(0 16.949)">
              <path id="Path_7771-2" data-name="Path 7771" d="M342.959,196.634l-3.923-2.9,4.633-5.246-6.716-2.687,17.213-8.445-3.011,18.935-4.543-5.63Z" transform="translate(-335.126 -176.061)" fill="#f4d34a"/>
              <g id="Group_9202-2" data-name="Group 9202" transform="translate(0 0)">
                <g id="Group_9200-2" data-name="Group 9200" transform="translate(0 0.772)" opacity="0.2" style="mix-blend-mode: multiply;isolation: isolate">
                  <path id="Path_7772-2" data-name="Path 7772" d="M349.383,197.128l3.5-22-20,9.811,7.289,2.916-4.472,5.064,5.226,3.861,3.526-5.763Zm-5.1-8.681-3.779,6.178-2.62-1.935,4.794-5.428-6.144-2.458,14.429-7.079L348.441,193.6Z" transform="translate(-332.884 -175.131)"/>
                </g>
                <g id="Group_9201-2" data-name="Group 9201">
                  <path id="Path_7773-2" data-name="Path 7773" d="M349.383,193.848l3.5-22-20,9.811,7.289,2.916-4.472,5.064,5.226,3.86,3.526-5.763Zm-5.1-8.681-3.779,6.178-2.62-1.935,4.794-5.428-6.144-2.458,14.429-7.08-2.524,15.873Z" transform="translate(-332.884 -171.85)" fill="#fff"/>
                </g>
              </g>
            </g>
            <g id="Group_9207-2" data-name="Group 9207" transform="translate(8.814 0)">
              <g id="Group_9204-2" data-name="Group 9204" transform="translate(0 0.772)" opacity="0.2" style="mix-blend-mode: multiply;isolation: isolate">
                <path id="Path_7774-2" data-name="Path 7774" d="M304.624,116.881l4.8-11.977-5.264-1.762Z" transform="translate(-291.48 -103.143)"/>
                <path id="Path_7775-2" data-name="Path 7775" d="M348.129,138.544l-7.671-7.8-2.262,4.573Z" transform="translate(-338.196 -124.243)"/>
                <path id="Path_7776-2" data-name="Path 7776" d="M268.464,152.361l8.344-6.123,2.288,3.917Z" transform="translate(-252.745 -136.091)"/>
              </g>
              <g id="Group_9206-2" data-name="Group 9206" transform="translate(0 0)">
                <g id="Group_9205-2" data-name="Group 9205">
                  <path id="Path_7777-2" data-name="Path 7777" d="M304.624,113.6l4.8-11.977-5.264-1.762Z" transform="translate(-291.48 -99.862)" fill="#f4d34a"/>
                  <path id="Path_7778-2" data-name="Path 7778" d="M348.129,135.263l-7.671-7.8-2.262,4.573Z" transform="translate(-338.196 -120.963)" fill="#f4d34a"/>
                  <path id="Path_7779-2" data-name="Path 7779" d="M268.464,149.08l8.344-6.123,2.288,3.917Z" transform="translate(-252.745 -132.811)" fill="#f4d34a"/>
                </g>
              </g>
            </g>
          </g>
        </g>
      </g>
    </g>
    <ellipse id="Ellipse_301" data-name="Ellipse 301" cx="35.5" cy="7" rx="35.5" ry="7" transform="translate(1263.974 869.772)" fill="#724f74" opacity="0.414"/>
  </g>
</svg>
