<svg xmlns="http://www.w3.org/2000/svg" xmlns:xlink="http://www.w3.org/1999/xlink" width="1627" height="3663" viewBox="0 0 1627 3663">
  <defs>
    <clipPath id="clip-path">
      <rect id="Rectangle_3518" data-name="Rectangle 3518" width="1627" height="3663" transform="translate(1721 -883)" fill="#fff" stroke="#707070" stroke-width="1"/>
    </clipPath>
    <clipPath id="clip-path-2">
      <rect id="Rectangle_3517" data-name="Rectangle 3517" width="6810" height="14124" transform="translate(-440.001 -3173.994)" fill="#fff" stroke="#707070" stroke-width="1"/>
    </clipPath>
    <linearGradient id="linear-gradient" x1="-0.798" y1="25.574" x2="0.311" y2="25.574" gradientUnits="objectBoundingBox">
      <stop offset="0" stop-color="#a564b6"/>
      <stop offset="1" stop-color="#e1a2f3"/>
    </linearGradient>
    <linearGradient id="linear-gradient-2" x1="-1.262" y1="32.102" x2="-0.075" y2="32.102" gradientUnits="objectBoundingBox">
      <stop offset="0" stop-color="#e1a2f3"/>
      <stop offset="1" stop-color="#a564b6"/>
    </linearGradient>
    <linearGradient id="linear-gradient-3" x1="0.015" y1="-1.022" x2="1.015" y2="-1.022" xlink:href="#linear-gradient"/>
    <linearGradient id="linear-gradient-4" x1="0.027" y1="-4.035" x2="1.031" y2="-4.035" xlink:href="#linear-gradient-2"/>
    <linearGradient id="linear-gradient-5" x1="0.048" y1="-3.032" x2="1.01" y2="-3.032" xlink:href="#linear-gradient-2"/>
    <linearGradient id="linear-gradient-6" x1="1.032" y1="27.783" x2="2.168" y2="27.783" xlink:href="#linear-gradient"/>
    <linearGradient id="linear-gradient-7" x1="1.84" y1="35.751" x2="3.116" y2="35.751" xlink:href="#linear-gradient-2"/>
    <linearGradient id="linear-gradient-8" x1="2.927" y1="209.187" x2="3.845" y2="209.187" xlink:href="#linear-gradient-2"/>
  </defs>
  <g id="menu-bg" transform="translate(-1721 883)" clip-path="url(#clip-path)">
    <g id="Mask_Group_13" data-name="Mask Group 13" transform="translate(-565 -7545.006)" clip-path="url(#clip-path-2)">
      <g id="Group_9989" data-name="Group 9989" transform="translate(-4354.647 -5302.113)">
        <g id="Group_9955" data-name="Group 9955" transform="translate(0 1935.559) rotate(-10)">
          <g id="Group_9953" data-name="Group 9953" transform="translate(1085.412 17723.787) rotate(17)">
            <ellipse id="Ellipse_265" data-name="Ellipse 265" cx="257.993" cy="255.659" rx="257.993" ry="255.659" transform="translate(291.848 0)" fill="#d7b3e2"/>
            <circle id="Ellipse_266" data-name="Ellipse 266" cx="255.659" cy="255.659" r="255.659" transform="translate(0 193.787)" fill="#d7b3e2"/>
            <ellipse id="Ellipse_267" data-name="Ellipse 267" cx="256.826" cy="254.491" rx="256.826" ry="254.491" transform="translate(590.7 98.061)" fill="#d7b3e2"/>
            <ellipse id="Ellipse_268" data-name="Ellipse 268" cx="257.993" cy="256.826" rx="257.993" ry="256.826" transform="translate(291.848 308.191)" fill="#d7b3e2"/>
          </g>
          <text id="_2021_華南銀行版權所有" data-name="© 2021 華南銀行版權所有" transform="translate(3271.544 18474.646)" fill="#fff" font-size="24" font-family="Lato-Regular, Lato"><tspan x="0" y="0">© 2021 </tspan><tspan y="0" font-family="PingFangTC-Regular, PingFang TC">華南銀行版權所有</tspan></text>
          <g id="Group_9954" data-name="Group 9954" transform="translate(0 0)">
            <rect id="Rectangle_3510" data-name="Rectangle 3510" width="9194.763" height="12043.706" transform="matrix(0.985, 0.174, -0.174, 0.985, 2091.367, 0)" fill="#ffe983"/>
            <path id="Union_8" data-name="Union 8" d="M4503.246,1587.164a351.464,351.464,0,0,1-102.8,15.273c-186.522,0-339.213-145.34-351.723-329.3a353.184,353.184,0,0,1-161.877,39c-166.285,0-305.769-114.348-343.6-268.462a352.222,352.222,0,0,1-332.558-62.5,270.282,270.282,0,0,1-485.937-16.073,270.317,270.317,0,0,1-431.437-109.475,266.812,266.812,0,0,1-263.11,52.106,302.885,302.885,0,0,1-284.453,104.5c-23.9,142.993-147.786,251.947-297.021,251.947-110.022,0-206.264-59.22-258.824-147.644a303.409,303.409,0,0,1-85.555,12.228C937.367,1128.77,802,993.924,802,827.583s135.369-301.188,302.354-301.188a305.538,305.538,0,0,1,50.931,4.255c30.878-133.522,150.542-233.062,293.448-233.062,103.365,0,194.573,52.077,248.817,131.416a303.206,303.206,0,0,1,246.071,20.421,265.566,265.566,0,0,1,173.458-64.188c115.573,0,214.01,73.649,251.325,176.773a270.371,270.371,0,0,1,425.131,93.216,270.844,270.844,0,0,1,299.358-38.238c39.8-151.585,177.365-263.379,340.948-263.379a353.488,353.488,0,0,1,61.11,5.293c37.27-154.391,177.134-269.129,343.977-269.129a354.024,354.024,0,0,1,292.121,153.187,351.972,351.972,0,0,1,117.631-20.1c194.71,0,352.55,157.843,352.55,352.552a353.337,353.337,0,0,1-9.634,82.2c2.175-.039,4.335-.06,6.52-.06a358.21,358.21,0,0,1,60.724,5.158A355.715,355.715,0,0,1,5082.62,764.118a352.315,352.315,0,0,1,309.038-96.95c37.283-154.376,177.142-269.126,343.974-269.126a354.019,354.019,0,0,1,292.121,153.183,352.01,352.01,0,0,1,117.637-20.1c194.708,0,352.552,157.843,352.552,352.551a351.559,351.559,0,0,1-26.263,133.767,351.216,351.216,0,0,1,89.388,234.611c0,194.708-157.844,352.551-352.55,352.551-114.078,0-215.5-54.184-279.939-138.216a354.655,354.655,0,0,1-478.126-86.924,351.272,351.272,0,0,1-235.167,89.89,354.832,354.832,0,0,1-61.154-5.284c-28.618,166.08-173.8,292.466-348.6,292.466A353.754,353.754,0,0,1,4503.246,1587.164ZM4239.632,933.854c3.957-2.04,7.979-4.016,12.02-5.906-.986.009-1.986.012-2.974.012-3.185,0-6.37-.042-9.533-.126C4239.325,929.844,4239.485,931.833,4239.632,933.854ZM0,1317.887C0,1151.548,135.367,1016.7,302.354,1016.7a304.826,304.826,0,0,1,58.961,5.724A302.311,302.311,0,0,1,604.706,899.961c166.989,0,302.356,134.845,302.356,301.187s-135.367,301.188-302.356,301.188a304.818,304.818,0,0,1-58.96-5.724,302.309,302.309,0,0,1-243.392,122.462C135.367,1619.074,0,1484.229,0,1317.887ZM3021.348,348.351a108.674,108.674,0,0,1-68.789-77.768,108.744,108.744,0,1,1,58.277-203,108.775,108.775,0,0,1,196.69,33.711,109.481,109.481,0,0,1,36.154,6.64c56.44,20.54,85.7,82.5,65.357,138.388s-82.584,84.548-139.021,64.005a110.434,110.434,0,0,1-18.047-8.475,108.653,108.653,0,0,1-130.621,46.5Zm-1241.1-191.195a56.267,56.267,0,0,1-13.394,1.609c-31.589,0-57.2-26.134-57.2-58.372s25.611-58.369,57.2-58.369a56.592,56.592,0,0,1,8,.565,58.389,58.389,0,0,1,105.951-14.781,59.214,59.214,0,0,1,22.638-4.463c32.236,0,58.37,25.612,58.37,57.2s-26.134,57.2-58.37,57.2a59.6,59.6,0,0,1-14.493-1.778,58.383,58.383,0,0,1-108.7,21.183Z" transform="translate(1598.521 10385.563)" fill="#fff9dd"/>
          </g>
        </g>
        <ellipse id="Ellipse_300" data-name="Ellipse 300" cx="2725.731" cy="883.848" rx="2725.731" ry="883.848" transform="matrix(0.978, -0.208, 0.208, 0.978, 2863.591, 12678.615)" fill="#c184c5"/>
        <path id="Path_7927" data-name="Path 7927" d="M13893.54-1175.573s-2566.476-562.344-3890.126-458.029S4275.56,67.959,4275.56,67.959L4147.674,2663.647,14098.062,2783.6Z" transform="translate(-2224.765 13549.737)" fill="#c184c5"/>
        <path id="Path_7928" data-name="Path 7928" d="M6387.349-1643.517l74.145,40.99,211.534,30.006,279.859-71Z" transform="translate(655.105 13578.116)" fill="#c184c5"/>
        <path id="Path_7929" data-name="Path 7929" d="M3291.108,229.505s-2273.945-516.387-2892.758,0S40.118,910.223,142.71,988.614s2586.36,68.361,2901.217,950.257S3291.108,229.505,3291.108,229.505Z" transform="matrix(0.999, 0.035, -0.035, 0.999, 7518.508, 11900.987)" opacity="0.096"/>
        <g id="Group_9956" data-name="Group 9956" transform="translate(3216.45 12120.422) rotate(-2)">
          <path id="Subtraction_6" data-name="Subtraction 6" d="M2357.16,3818.838c-296.065,0-578.924-26.274-840.721-78.094-64.528-12.773-128.453-27.269-190-43.084-61.526-15.811-122.233-33.34-180.432-52.1-58.259-18.78-115.495-39.276-170.118-60.917-54.74-21.687-108.254-45.08-159.055-69.529-207.021-99.635-378.815-220.818-510.611-360.179a1257.129,1257.129,0,0,1-92.51-109.546,1137.893,1137.893,0,0,1-76.959-116.939A1060.837,1060.837,0,0,1,76.1,2804.317,1018.438,1018.438,0,0,1,.275,2440.87,1073.574,1073.574,0,0,1,4.1,2323.264a1147.17,1147.17,0,0,1,16.64-118.14c7.582-39.112,17.376-78.93,29.11-118.348,11.65-39.141,25.521-78.921,41.23-118.237,15.608-39.069,33.44-78.7,53-117.8,19.456-38.892,41.13-78.272,64.42-117.047,200.79-334.282,538.589-655.842,976.878-929.915,221.543-138.538,466.055-263.21,726.743-370.555,66-27.179,133.891-53.572,201.777-78.446,68.492-25.1,138.789-49.309,208.94-71.964,70.822-22.872,143.382-44.769,215.667-65.079,73.039-20.522,147.716-39.966,221.957-57.793,111.658-26.811,225.076-50.626,337.1-70.783,110.37-19.858,222.038-36.644,331.9-49.891,108.423-13.072,217.667-23.011,324.7-29.539C3859.981,3.273,3966.125,0,4069.646,0c87.21,0,174.5,2.324,259.444,6.907-68.6,14.432-137.172,30.575-203.8,47.984-66.079,17.266-131.878,36.2-195.57,56.285-63.292,19.957-126.079,41.541-186.618,64.153-60.241,22.5-119.774,46.587-176.947,71.589-56.977,24.917-113.013,51.36-166.555,78.593-53.448,27.185-105.747,55.838-155.444,85.164-49.68,29.315-98,60.034-143.614,91.3-45.679,31.314-89.775,63.952-131.062,97.011-41.419,33.161-81.051,67.576-117.794,102.285-36.911,34.868-71.835,70.912-103.8,107.128a1422.731,1422.731,0,0,0-89.094,111.539,1229.863,1229.863,0,0,0-73.664,115.517,1077.526,1077.526,0,0,0-57.516,119.063,965.812,965.812,0,0,0-40.646,122.177,895.791,895.791,0,0,0-23.058,124.858,868.674,868.674,0,0,0-4.75,127.109c.914,25.181,2.955,50.615,6.067,75.594,3.09,24.8,7.32,49.842,12.572,74.421,5.218,24.415,11.583,49.033,18.919,73.168,7.29,23.979,15.738,48.147,25.111,71.834,9.317,23.542,19.795,47.235,31.144,70.419,11.289,23.066,23.744,46.255,37.019,68.924a1182.037,1182.037,0,0,0,91.034,133.043,1402.087,1402.087,0,0,0,112.648,126.1,1675.233,1675.233,0,0,0,133,118.509c47.286,37.927,98.458,75.029,152.094,110.277,53.468,35.137,110.64,69.253,169.928,101.4,59.244,32.124,121.992,63.037,186.5,91.881,64.612,28.889,132.513,56.383,201.818,81.718,69.574,25.433,142.2,49.291,215.872,70.912,74.109,21.749,151.045,41.755,228.669,59.461,78.246,17.848,159.063,33.784,240.206,47.368,81.957,13.72,166.231,25.371,250.481,34.63,85.24,9.369,172.548,16.518,259.5,21.25,88.1,4.795,178.019,7.225,267.257,7.225,56.064,0,113.026-.959,169.3-2.853,18.675-.628,37.584-1.369,56.2-2.2-228.937,150.754-484.373,286.249-759.212,402.726-69.564,29.482-141.212,58.071-212.954,84.972-72.41,27.153-146.82,53.3-221.162,77.719-75.1,24.667-152.1,48.211-228.846,69.981-77.612,22.013-157.014,42.792-236,61.758-111.656,26.81-225.074,50.624-337.1,70.782-110.355,19.857-222.019,36.642-331.893,49.891-108.408,13.072-217.648,23.01-324.684,29.539C2566.823,3815.565,2460.68,3818.837,2357.16,3818.838Z" transform="translate(0 0)" fill="#cf95d3"/>
        </g>
        <g id="Group_9969" data-name="Group 9969" transform="translate(4985.672 12211.447)">
          <g id="Group_9959" data-name="Group 9959" transform="translate(180.125 414.936)">
            <g id="Group_9958" data-name="Group 9958">
              <g id="Group_9957" data-name="Group 9957">
                <rect id="Rectangle_3511" data-name="Rectangle 3511" width="50.257" height="205.216" fill="#b072b4"/>
              </g>
            </g>
          </g>
          <g id="Group_9962" data-name="Group 9962" transform="translate(180.149 414.936)">
            <g id="Group_9961" data-name="Group 9961">
              <g id="Group_9960" data-name="Group 9960">
                <rect id="Rectangle_3512" data-name="Rectangle 3512" width="18.511" height="196.341" fill="#97599b"/>
              </g>
            </g>
          </g>
          <g id="Group_9965" data-name="Group 9965" transform="translate(0 2.118)">
            <g id="Group_9964" data-name="Group 9964">
              <g id="Group_9963" data-name="Group 9963">
                <path id="Path_7932" data-name="Path 7932" d="M356.881,348.088c.409-1.514.759-3.046,1.233-4.528a61.969,61.969,0,0,1,37.6-117.808,106.591,106.591,0,1,1,207.4-19.487,77,77,0,0,1,16.858,114.573,65.622,65.622,0,0,1,18.357,45.568c0,1.156-.117,2.286-.175,3.43a56.469,56.469,0,0,1-35.6,107.142,92.375,92.375,0,0,1-181.6,33.791,93.416,93.416,0,1,1-64.067-162.681Z" transform="translate(-264.864 -87.223)" fill="#b072b4"/>
              </g>
            </g>
          </g>
          <g id="Group_9968" data-name="Group 9968" transform="translate(125.593)">
            <g id="Group_9967" data-name="Group 9967">
              <g id="Group_9966" data-name="Group 9966">
                <path id="Path_7933" data-name="Path 7933" d="M513.318,436.513c.058-1.143.169-2.273.169-3.43a65.58,65.58,0,0,0-18.376-45.568,76.94,76.94,0,0,0-16.883-114.573A108.036,108.036,0,0,0,479,260.568a106.633,106.633,0,0,0-194.464-60.5c-.13-2.157-.247-4.32-.247-6.509a106.662,106.662,0,1,1,212.549,12.381A76.92,76.92,0,0,1,513.72,320.505,65.585,65.585,0,0,1,532.1,366.073c0,1.156-.117,2.287-.176,3.43A56.285,56.285,0,0,1,546.1,467.94,56.579,56.579,0,0,0,513.318,436.513Z" transform="translate(-284.289 -86.897)" fill="#a368a7"/>
              </g>
            </g>
          </g>
        </g>
        <g id="Group_9982" data-name="Group 9982" transform="translate(5808.717 12093.54)">
          <g id="Group_9972" data-name="Group 9972" transform="translate(82.471 189.979)">
            <g id="Group_9971" data-name="Group 9971">
              <g id="Group_9970" data-name="Group 9970">
                <rect id="Rectangle_3513" data-name="Rectangle 3513" width="23.01" height="93.959" fill="#b072b4"/>
              </g>
            </g>
          </g>
          <g id="Group_9975" data-name="Group 9975" transform="translate(82.481 189.979)">
            <g id="Group_9974" data-name="Group 9974">
              <g id="Group_9973" data-name="Group 9973">
                <rect id="Rectangle_3514" data-name="Rectangle 3514" width="8.475" height="89.895" fill="#97599b"/>
              </g>
            </g>
          </g>
          <g id="Group_9978" data-name="Group 9978" transform="translate(0 0.97)">
            <g id="Group_9977" data-name="Group 9977">
              <g id="Group_9976" data-name="Group 9976">
                <path id="Path_7934" data-name="Path 7934" d="M306.994,206.66c.187-.693.348-1.395.564-2.073a28.373,28.373,0,0,1,17.213-53.938,48.8,48.8,0,1,1,94.958-8.922,35.253,35.253,0,0,1,7.719,52.457,30.045,30.045,0,0,1,8.4,20.863c0,.529-.053,1.047-.08,1.57a25.855,25.855,0,0,1-16.3,49.055,42.294,42.294,0,0,1-83.147,15.471,42.77,42.77,0,1,1-29.333-74.483Z" transform="translate(-264.864 -87.223)" fill="#b072b4"/>
              </g>
            </g>
          </g>
          <g id="Group_9981" data-name="Group 9981" transform="translate(57.503)">
            <g id="Group_9980" data-name="Group 9980">
              <g id="Group_9979" data-name="Group 9979">
                <path id="Path_7935" data-name="Path 7935" d="M389.15,246.969c.027-.523.077-1.041.077-1.57a30.026,30.026,0,0,0-8.414-20.863,35.227,35.227,0,0,0-7.73-52.457,49.475,49.475,0,0,0,.354-5.666,48.822,48.822,0,0,0-89.036-27.7c-.059-.987-.113-1.978-.113-2.98A48.835,48.835,0,1,1,381.6,141.4a35.218,35.218,0,0,1,7.73,52.454,30.028,30.028,0,0,1,8.417,20.863c0,.529-.054,1.047-.081,1.57a25.77,25.77,0,0,1,6.49,45.07A25.9,25.9,0,0,0,389.15,246.969Z" transform="translate(-284.289 -86.897)" fill="#a368a7"/>
              </g>
            </g>
          </g>
        </g>
        <g id="Group_9988" data-name="Group 9988" transform="translate(6897.059 11372.314)">
          <g id="Group_9983" data-name="Group 9983" transform="translate(0 86.184)">
            <rect id="Rectangle_3515" data-name="Rectangle 3515" width="262.689" height="30.323" transform="translate(289.962 0)" fill="#c184c5"/>
            <path id="Path_7936" data-name="Path 7936" d="M280,172.668h13.35V28.682h-1.719V24.29h-5.338V8.785h5.338V0H20A4.392,4.392,0,0,0,15.6,4.393v24.29H0V341.835H293.35V222.906H280ZM242.342,8.785h16.7v15.5h-16.7Zm-65.911,0h16.7v15.5h-16.7Zm-65.915,0h16.7v15.5h-16.7Zm-65.911,0H61.3v15.5H44.6Zm-5.271,15.5H24.388V8.785H39.334ZM79.472,300.835H40.6V247.364h38.87Zm0-88.841H40.6V158.52h38.87Zm0-88.841H40.6V69.682h38.87Zm3.8-98.863h-16.7V8.785h16.7Zm5.271-15.5h16.7v15.5h-16.7Zm52.006,292.05h-38.87V247.364h38.87Zm0-88.841h-38.87V158.52h38.87Zm0-88.841h-38.87V69.682h38.87Zm8.634-98.863h-16.7V8.785h16.7Zm5.271-15.5h16.7v15.5h-16.7Zm47.17,292.05H162.761V247.364h38.866Zm0-88.841H162.761V158.52h38.866Zm0-88.841H162.761V69.682h38.866Zm13.48-98.863H198.4V8.785h16.706Zm5.271-15.5h16.692v15.5H220.379Zm42.335,292.05H223.837V247.364h38.877Zm0-88.841H223.837V158.52h38.877Zm0-88.841H223.837V69.682h38.877Zm1.6-114.368h16.706v15.5H264.316Z" transform="translate(0 164.36)" fill="#c184c5"/>
            <path id="Path_7937" data-name="Path 7937" d="M277.74,28.682V4.393A4.392,4.392,0,0,0,273.348,0H0V8.785H9.372v15.5H0V172.668H13.35v50.238H0V341.835H293.34V28.682Zm-43.386-19.9h16.7v15.5h-16.7Zm-65.911,0h16.7v15.5h-16.7Zm-65.915,0h16.7v15.5h-16.7Zm-65.911,0h16.7v15.5h-16.7Zm-21.974,0h16.7v15.5h-16.7Zm54.863,292.05H30.633V247.364H69.506Zm0-88.841H30.633V158.52H69.506Zm0-88.841H30.633V69.682H69.506ZM75.29,24.29h-16.7V8.785h16.7Zm5.271-15.5h16.7v15.5h-16.7Zm50.027,292.05H91.712V247.364h38.877Zm0-88.841H91.712V158.52h38.877Zm0-88.841H91.712V69.682h38.877ZM141.2,24.29H124.5V8.785h16.7Zm5.271-15.5h16.7v15.5h-16.7Zm45.192,292.05h-38.87V247.364h38.87Zm0-88.841h-38.87V158.52h38.87Zm0-88.841h-38.87V69.682h38.87ZM207.11,24.29h-16.7V8.785h16.7Zm5.271-15.5h16.7v15.5h-16.7Zm40.374,292.05H213.878V247.364h38.877Zm0-88.841H213.878V158.52h38.877Zm0-88.841H213.878V69.682h38.877Zm16.2-98.863H256.329V8.785h12.626Z" transform="translate(549.261 164.36)" fill="#c184c5"/>
            <path id="Path_7938" data-name="Path 7938" d="M0,296.745H235.989V0H0Zm192.259-13.9H153.392V229.368h38.866Zm0-88.838H153.392V140.523h38.866ZM117.987,14.366A48.583,48.583,0,1,1,69.411,62.942,48.582,48.582,0,0,1,117.987,14.366ZM43.723,140.523H82.589v53.482H43.723Zm0,88.844H82.589v53.475H43.723Z" transform="translate(303.313 40.283)" fill="#c184c5"/>
            <rect id="Rectangle_3516" data-name="Rectangle 3516" width="262.689" height="30.316" transform="translate(289.962 346.987)" fill="#c184c5"/>
            <path id="Path_7939" data-name="Path 7939" d="M25.419,21.964c.074.053.154.07.228.116s.158.081.239.12a2.662,2.662,0,0,0,1.051.249h0a2.609,2.609,0,0,0,1.054-.253c.081-.035.155-.07.232-.112s.162-.067.232-.116L52.777,4.79a2.635,2.635,0,1,0-3.04-4.3l-22.8,16.1L4.155.485a2.635,2.635,0,1,0-3.04,4.3Z" transform="translate(394.359 83.411)" fill="#c184c5"/>
            <path id="Path_7940" data-name="Path 7940" d="M0,118.929H235.989V0H0ZM161.844,26.978h33.89v80.537h-33.89Zm-38.877,0h28.918v80.537H122.967Zm-38.866,0H113v80.537H84.1Zm-43.853,0H74.141v80.537H40.247Z" transform="translate(303.313 387.265)" fill="#c184c5"/>
          </g>
          <g id="Group_9987" data-name="Group 9987" transform="translate(298.682 0)">
            <g id="Group_9984" data-name="Group 9984" transform="translate(86.811 26.776)">
              <path id="Path_7941" data-name="Path 7941" d="M2388.074,212.99c.04-2.118.051-4.237.062-6.356v-.354c.027-5.381.055-10.947.53-16.474a11.5,11.5,0,0,1,3.86-7.978,9.1,9.1,0,0,1,6.926-1.92c3.577.412,7.856,2.646,7.941,10.954.038,3.64.041,7.283.044,10.926v.464c0,3.862.011,7.725.058,11.586.115,9.342,2.654,12.549,10.443,13.2,10.09.844,13.514-1.668,15.33-11.165,1.662-8.7,1.277-17.839.9-26.681l-.082-1.984c-.477-11.646-2.769-18.661-7.214-22.077-4.654-3.571-12.346-3.911-24.952-1.09a14.129,14.129,0,0,0-3.695,1.31c-5.017,2.747-9.558,2.545-14.729-.661-4.787-2.967-9.907-3.5-14.054-1.476-4.225,2.069-6.994,6.548-7.6,12.289a100.229,100.229,0,0,0-.226,13.029c.055,2.118.109,4.205.107,6.286a3.513,3.513,0,0,1-.127.932c-.011,1.668-.035,3.338-.062,5.007-.065,4.2-.132,8.542.094,12.742.584,10.848,3.788,13.9,14.349,13.555C2385.16,226.756,2387.872,223.6,2388.074,212.99Z" transform="translate(-2361.476 -162.003)" fill="url(#linear-gradient)"/>
              <path id="Path_7942" data-name="Path 7942" d="M2431.727,234.343c7.154.6,10.957-.495,13.21-4.567-15.844,1.484-12.05-26.975-15.049-36.333-5.1-15.906-25.84-12.8-28.913,2.9l1.243,4.122c.064-1.118.137-2.237.233-3.355a11.5,11.5,0,0,1,3.859-7.977,9.1,9.1,0,0,1,6.926-1.92c3.578.412,7.857,2.646,7.941,10.954.039,3.64.042,7.283.045,10.926l0,.464c0,3.862.01,7.725.057,11.586C2421.4,230.485,2423.936,233.692,2431.727,234.343Z" transform="translate(-2375.263 -169.308)" fill="url(#linear-gradient-2)"/>
            </g>
            <g id="Group_9985" data-name="Group 9985" transform="translate(165.401 0)">
              <path id="Path_7943" data-name="Path 7943" d="M2560.333,123.375c-5.429-4-12-3.166-17.577,2.222a149.031,149.031,0,0,0-12.613,14.537l-.359.448c-1.24,1.558-3.212,3.638-5.988,3.713-2.756.033-4.751-1.93-6.18-3.644-3.8-4.55-8.207-9.37-13.48-14.739-2.583-2.629-5.232-3.88-8.1-3.821a13.092,13.092,0,0,0-6.184,1.95c-4.109,2.368-6.757,5.684-7.456,9.338-.679,3.541.436,7.281,3.229,10.812,6.252,7.9,13.239,15.522,19.3,22.044,3.528,3.792,5.162,8.025,5.3,13.724.044,1.932.039,3.87.03,5.809-.02,5.84-.041,11.354,1.361,16.768,2.014,7.761,5.522,10.454,13.405,10.293,7.847-.163,11.875-3.584,13.468-11.438,1.383-6.8,1-13.929.63-20.823a21.641,21.641,0,0,1,5.083-15.624c6.274-7.725,12.9-15.977,18.886-24.449C2567.8,133.817,2566.906,128.217,2560.333,123.375Z" transform="translate(-2482.2 -120.873)" fill="url(#linear-gradient-3)"/>
              <path id="Path_7944" data-name="Path 7944" d="M2575.071,122.271c-5.045-2.649-10.812-1.48-15.793,3.331a149.257,149.257,0,0,0-12.615,14.536l-.355.448c-1.242,1.558-3.214,3.638-5.989,3.713-2.757.033-4.75-1.93-6.181-3.644q-1.913-2.294-4.053-4.694l-.544.32s11.006,16.019,15.174,15.438C2548.212,151.232,2567.258,134,2575.071,122.271Z" transform="translate(-2498.722 -120.877)" fill="url(#linear-gradient-4)"/>
              <path id="Path_7945" data-name="Path 7945" d="M2538.2,240.837c-1.3-17.748-9.965-32.758-14.667-39.7a22.882,22.882,0,0,1,1.112,6.839c.045,1.932.038,3.871.031,5.809-.021,5.84-.042,11.354,1.361,16.768C2527.94,237.886,2531.187,240.69,2538.2,240.837Z" transform="translate(-2496.625 -148.883)" fill="url(#linear-gradient-5)"/>
            </g>
            <g id="Group_9986" data-name="Group 9986" transform="translate(0 5.294)">
              <path id="Path_7946" data-name="Path 7946" d="M2229.368,194.542a114.111,114.111,0,0,0,4.126,15.059,4.068,4.068,0,0,0,3.119,2.914,61.908,61.908,0,0,0,28.628,2.5l.188-.023c.127-.012.256-.02.386-.02,7.1-.053,14.468-2.17,21.928-6.285,6.748-3.722,10.92-8.342,12.758-14.127,3.177-10.014,2.174-16.132-3.464-21.117a36.364,36.364,0,0,0-15.806-8.1l-1.135-.274a30.979,30.979,0,0,1-8.537-2.982l-.221-.126c-1.441-.812-4.825-2.72-4.733-6.808.047-2.243,1.1-5.132,5.844-6.157.24-.051.357-.074.464-.107a63.729,63.729,0,0,1,23.318-2.429,8.931,8.931,0,0,0,2.021-.051,8.881,8.881,0,0,0,.052-1.949,112.428,112.428,0,0,0-1.492-12.392c-.353-2.1-.353-2.1-2.9-2.238-1.285-.07-2.568-.147-3.853-.224l-.428-.025a174.45,174.45,0,0,0-19.561-.445c-8.695.464-19.935,1.719-29.8,7.34-8.27,4.714-12.24,11.325-12.14,20.212.107,9.623,4.47,16.456,13.336,20.889,4.684,2.343,9.732,4.28,14.614,6.154l1.466.541c3.581.942,4.333,3.446,4.454,4.852.139,1.589-.236,4.5-4.326,6.107l-.177.07a12.341,12.341,0,0,1-2.885.714C2246.563,197.215,2237.974,197.836,2229.368,194.542Z" transform="translate(-2228.126 -129.005)" fill="url(#linear-gradient-6)"/>
              <path id="Path_7947" data-name="Path 7947" d="M2318.309,202.888c3.177-10.014,2.172-16.132-3.467-21.117a36.347,36.347,0,0,0-15.8-8.1l-1.137-.274a31.011,31.011,0,0,1-8.537-2.982l-.219-.126c-1.441-.812-4.825-2.72-4.733-6.808.047-2.243,1.1-5.132,5.844-6.157.24-.051.358-.074.463-.107a63.741,63.741,0,0,1,23.32-2.429,8.9,8.9,0,0,0,2.02-.051c0-.02.008-.044.01-.066H2316s-30.022-7.358-36.035,7.7c-3.354,8.4,4.244,16.363,11.965,19.323,6.135,2.351,14.575,1.91,18.811,7.735,2.156,2.966,2.63,6.894,2.075,10.52-1.142,7.5-5.374,16.626-12.763,19.745a58.453,58.453,0,0,0,5.5-2.678C2312.3,213.293,2316.47,208.673,2318.309,202.888Z" transform="translate(-2245.933 -137.335)" fill="url(#linear-gradient-7)"/>
              <path id="Path_7948" data-name="Path 7948" d="M2262.868,223.213c-.189,1.594-1.115,3.638-4.307,4.9l-.177.07a12.356,12.356,0,0,1-2.884.714c-7.92,1.182-16.362,1.794-24.828-1.325C2263,242.461,2264.141,229.968,2262.868,223.213Z" transform="translate(-2229.016 -161.884)" fill="url(#linear-gradient-8)"/>
            </g>
          </g>
        </g>
      </g>
      <path id="Path_7949" data-name="Path 7949" d="M7464.171-1641.588S6125.083-1326.7,5862.969-604.935" transform="translate(-4405.366 8308.85)" fill="none" stroke="#707070" stroke-width="1"/>
    </g>
  </g>
</svg>
