<svg id="Group_4429" data-name="Group 4429" xmlns="http://www.w3.org/2000/svg" width="385" height="74.33" viewBox="0 0 385 74.33">
  <path id="Path_4235" data-name="Path 4235" d="M1073.494,201.086v3.364a11.809,11.809,0,0,1-8.718,11.382l-6.89,1.859H1128.4l-27.144-30.16,27.144-30.159h-55.223v43.714Z" transform="translate(-743.404 -143.361)" fill="#f5e352"/>
  <path id="Path_4236" data-name="Path 4236" d="M1048.069,231.433l13.9-3.749a9.483,9.483,0,0,0,6.868-7.581h-20.764Z" transform="translate(-741.198 -157.458)" fill="#f5e352"/>
  <path id="Path_4237" data-name="Path 4237" d="M679.394,187.531l-27.144,30.16h70.518l-6.89-1.859a11.806,11.806,0,0,1-8.6-9.826H707.2v-.726c-.019-.275-.035-.55-.035-.83v-3.364h.035V157.372H652.25Z" transform="translate(-652.25 -143.361)" fill="#f5e352"/>
  <path id="Path_4238" data-name="Path 4238" d="M733.111,227.684l13.9,3.749V220.1H726.243A9.484,9.484,0,0,0,733.111,227.684Z" transform="translate(-668.878 -157.458)" fill="#f5e352"/>
  <path id="Path_4239" data-name="Path 4239" d="M723.076,217.121c0,.279.016.554.035.83v-4.193h-.035Z" transform="translate(-668.166 -156.032)" fill="#ffef6f"/>
  <rect id="Rectangle_3301" data-name="Rectangle 3301" width="270.181" height="60.32" transform="translate(57.271 0)" fill="#ffef6f"/>
  <text id="第_重" data-name="第        重" transform="translate(138 43.353)" fill="#854789" font-size="28" font-family="NotoSansTC-Bold, Noto Sans TC" font-weight="700" letter-spacing="0.01em"><tspan x="0" y="0" xml:space="preserve">第        重</tspan></text>
</svg>
