<svg xmlns="http://www.w3.org/2000/svg" xmlns:xlink="http://www.w3.org/1999/xlink" width="264" height="78" viewBox="0 0 264 78">
  <defs>
    <clipPath id="clip-path">
      <rect id="Rectangle_3296" data-name="Rectangle 3296" width="264" height="78" rx="24" transform="translate(1587 51)" fill="none"/>
    </clipPath>
  </defs>
  <g id="ribbon_on_button" transform="translate(-1587 -51)" clip-path="url(#clip-path)">
    <g id="Group_4419" data-name="Group 4419" transform="translate(1553.768 70.729) rotate(-17)">
      <g id="Group_3805" data-name="Group 3805">
        <g id="Group_3795" data-name="Group 3795">
          <g id="Group_3793" data-name="Group 3793">
            <path id="Path_306" data-name="Path 306" d="M134.429,84.75a195.865,195.865,0,0,1-90.951,9.01A169.769,169.769,0,0,1,7.542,84.909V86.5A172.391,172.391,0,0,0,43.214,95.23a196.288,196.288,0,0,0,27.125,1.881q7.748,0,15.477-.611a196.81,196.81,0,0,0,48.613-10.171Z" transform="translate(-7.542 -84.75)" fill="#fff"/>
          </g>
        </g>
        <g id="Group_3804" data-name="Group 3804" transform="translate(18.392 5.571)">
          <g id="Group_3797" data-name="Group 3797" transform="translate(60.111 3.479)">
            <path id="Path_309" data-name="Path 309" d="M272.459,128.681l-5.2-2.824-4.545,3.783L261.4,116.212l9.741-.959Z" transform="translate(-261.358 -114.866)" fill="#fca518"/>
            <rect id="Rectangle_3214" data-name="Rectangle 3214" width="9.788" height="0.975" transform="translate(0 0.958) rotate(-5.619)" fill="#fca518"/>
          </g>
          <g id="Group_3798" data-name="Group 3798" transform="translate(0 0)">
            <path id="Path_310" data-name="Path 310" d="M76.513,119.36l-4-4.353-5.525,2.109,3.094-13.133,9.527,2.244Z" transform="translate(-66.986 -103.603)" fill="#e76161"/>
            <rect id="Rectangle_3216" data-name="Rectangle 3216" width="0.975" height="9.788" transform="translate(2.959 0.949) rotate(-76.748)" fill="#e76161"/>
            <rect id="Rectangle_3217" data-name="Rectangle 3217" width="1.17" height="9.788" transform="translate(2.691 2.088) rotate(-76.746)" fill="#d4d5d5" opacity="0.6" style="mix-blend-mode: multiply;isolation: isolate"/>
          </g>
          <g id="Group_3799" data-name="Group 3799" transform="translate(75.33 0.774)">
            <path id="Path_311" data-name="Path 311" d="M313.624,121.766l4.068-4.291,5.492,2.194-2.892-13.179-9.56,2.1Z" transform="translate(-310.649 -106.108)" fill="#e76161"/>
            <rect id="Rectangle_3218" data-name="Rectangle 3218" width="9.788" height="0.975" transform="matrix(0.977, -0.214, 0.214, 0.977, 0, 2.098)" fill="#e76161"/>
          </g>
          <g id="Group_3800" data-name="Group 3800" transform="translate(15.548 3.121)">
            <path id="Path_312" data-name="Path 312" d="M126.977,128.5l-4.54-3.789-5.2,2.817,1.34-13.425,9.739.972Z" transform="translate(-117.238 -113.71)" fill="#00ade0"/>
            <rect id="Rectangle_3220" data-name="Rectangle 3220" width="0.975" height="9.788" transform="matrix(0.099, -0.995, 0.995, 0.099, 1.282, 0.97)" fill="#5bb1d3"/>
          </g>
          <g id="Group_3802" data-name="Group 3802" transform="translate(30.524 4.35)">
            <path id="Path_314" data-name="Path 314" d="M175.415,132.1l-4.7-3.591-5.074,3.038.763-13.471,9.772.553Z" transform="translate(-165.643 -117.686)" fill="#cc8cde"/>
            <rect id="Rectangle_3224" data-name="Rectangle 3224" width="0.975" height="9.787" transform="matrix(0.057, -0.998, 0.998, 0.057, 0.73, 0.973)" fill="#cc8cde"/>
          </g>
          <g id="Group_3803" data-name="Group 3803" transform="translate(45.287 4.81)">
            <path id="Path_315" data-name="Path 315" d="M223.147,133.056l-4.894-3.319-4.894,3.319V119.563h9.788Z" transform="translate(-213.359 -119.174)" fill="#e6623b"/>
            <rect id="Rectangle_3226" data-name="Rectangle 3226" width="9.788" height="0.975" fill="#e76161"/>
          </g>
        </g>
      </g>
    </g>
  </g>
</svg>
