<svg id="school" xmlns="http://www.w3.org/2000/svg" width="100%" height="100%" viewBox="0 0 67.603 46.846">
  <g id="Group_4404" data-name="Group 4404" transform="translate(0 7.497)">
    <rect id="Rectangle_276" data-name="Rectangle 276" width="22.85" height="2.638" transform="translate(22.377 0)" fill="#fff"/>
    <path id="Path_196" data-name="Path 196" d="M24.355,15.019h1.161V2.495h-.149V2.113H24.9V.764h.464V0H1.739a.382.382,0,0,0-.382.382V2.495H0V29.734H25.517V19.389H24.355ZM21.08.764h1.453V2.113H21.08Zm-5.733,0H16.8V2.113H15.347Zm-5.734,0h1.453V2.113H9.613ZM3.88.764H5.332V2.113H3.88ZM3.421,2.113h-1.3V.764h1.3ZM6.913,26.168H3.532V21.517H6.913Zm0-7.728H3.532V13.789H6.913Zm0-7.728H3.532V6.061H6.913Zm.331-8.6H5.791V.764H7.244ZM7.7.764H9.155V2.113H7.7Zm4.524,25.4H8.845V21.517h3.381Zm0-7.728H8.845V13.789h3.381Zm0-7.728H8.845V6.061h3.381Zm.751-8.6H11.525V.764h1.452ZM13.435.764h1.453V2.113H13.435Zm4.1,25.4H14.158V21.517h3.381Zm0-7.728H14.158V13.789h3.381Zm0-7.728H14.158V6.061h3.381Zm1.173-8.6H17.258V.764h1.453ZM19.169.764h1.452V2.113H19.169Zm3.682,25.4H19.47V21.517h3.382Zm0-7.728H19.47V13.789h3.382Zm0-7.728H19.47V6.061h3.382ZM22.991.764h1.453V2.113H22.991Z" transform="translate(0 9.616)" fill="#fff"/>
    <path id="Path_197" data-name="Path 197" d="M24.159,2.495V.382A.382.382,0,0,0,23.777,0H0V.764H.815V2.113H0V15.019H1.161v4.37H0V29.734H25.516V2.495ZM20.385.764h1.453V2.113H20.385Zm-5.733,0H16.1V2.113H14.652Zm-5.734,0h1.453V2.113H8.918Zm-5.733,0H4.638V2.113H3.185Zm-1.911,0H2.727V2.113H1.274Zm4.772,25.4H2.665V21.517H6.046Zm0-7.728H2.665V13.789H6.046Zm0-7.728H2.665V6.061H6.046Zm.5-8.6H5.1V.764H6.549ZM7.008.764H8.46V2.113H7.008Zm4.352,25.4H7.977V21.517h3.382Zm0-7.728H7.977V13.789h3.382Zm0-7.728H7.977V6.061h3.382Zm.923-8.6H10.83V.764h1.453ZM12.741.764h1.453V2.113H12.741Zm3.931,25.4H13.291V21.517h3.381Zm0-7.728H13.291V13.789h3.381Zm0-7.728H13.291V6.061h3.381Zm1.343-8.6H16.563V.764h1.453ZM18.474.764h1.453V2.113H18.474Zm3.512,25.4H18.6V21.517h3.382Zm0-7.728H18.6V13.789h3.382Zm0-7.728H18.6V6.061h3.382Zm1.409-8.6H22.3V.764h1.1Z" transform="translate(42.087 9.616)" fill="#fff"/>
    <path id="Path_198" data-name="Path 198" d="M0,25.812H20.527V0H0ZM16.723,24.6H13.343V19.951h3.381Zm0-7.727H13.343V12.223h3.381ZM10.263,1.25A4.226,4.226,0,1,1,6.038,5.475,4.226,4.226,0,0,1,10.263,1.25ZM3.8,12.223H7.184v4.652H3.8Zm0,7.728H7.184V24.6H3.8Z" transform="translate(23.538 3.186)" fill="#fff"/>
    <rect id="Rectangle_277" data-name="Rectangle 277" width="22.85" height="2.637" transform="translate(22.377 27.309)" fill="#fff"/>
    <path id="Path_199" data-name="Path 199" d="M2.211,1.91c.006,0,.013.006.02.01l.021.01a.232.232,0,0,0,.091.022h0a.227.227,0,0,0,.092-.022l.02-.01c.007,0,.014-.006.02-.01L4.591.417A.229.229,0,1,0,4.326.042l-1.983,1.4L.361.042A.229.229,0,1,0,.1.417Z" transform="translate(31.458 6.597)" fill="#fff"/>
    <path id="Path_200" data-name="Path 200" d="M0,10.345H20.527V0H0Zm14.078-8h2.948V9.352H14.078Zm-3.382,0h2.515V9.352H10.7Zm-3.381,0H9.83V9.352H7.315Zm-3.815,0H6.449V9.352H3.5Z" transform="translate(23.538 29.005)" fill="#fff"/>
  </g>
  <g id="Group_7508" data-name="Group 7508" transform="translate(23.116 0)">
    <g id="Group_7505" data-name="Group 7505" transform="translate(7.551 2.329)">
      <path id="Path_6272" data-name="Path 6272" d="M2363.79,166.438c0-.184,0-.369.005-.553v-.031c0-.468,0-.952.046-1.433a1,1,0,0,1,.336-.694.792.792,0,0,1,.6-.167c.311.036.683.23.691.953,0,.317,0,.634,0,.95v.04c0,.336,0,.672.005,1.008.01.813.231,1.092.908,1.148.877.073,1.176-.145,1.333-.971a10.169,10.169,0,0,0,.079-2.321l-.007-.173c-.042-1.013-.241-1.623-.627-1.92-.405-.311-1.074-.34-2.17-.095a1.234,1.234,0,0,0-.322.114,1.158,1.158,0,0,1-1.281-.058,1.257,1.257,0,0,0-1.222-.128,1.286,1.286,0,0,0-.661,1.069,8.785,8.785,0,0,0-.02,1.133c.005.184.01.366.01.547a.306.306,0,0,1-.011.081q0,.218-.005.436c-.006.365-.011.743.008,1.108.051.944.33,1.209,1.248,1.179C2363.537,167.636,2363.772,167.361,2363.79,166.438Z" transform="translate(-2361.476 -162.003)" fill="#fff"/>
      <path id="Path_6273" data-name="Path 6273" d="M2403.651,187.4c.623.052.953-.043,1.149-.4-1.378.129-1.048-2.346-1.309-3.16a1.29,1.29,0,0,0-2.515.252l.108.359c.006-.1.012-.195.02-.292a1,1,0,0,1,.336-.694.792.792,0,0,1,.6-.167c.311.036.683.23.691.953,0,.317,0,.634,0,.95v.04c0,.336,0,.672,0,1.008C2402.752,187.069,2402.973,187.348,2403.651,187.4Z" transform="translate(-2398.739 -181.747)" fill="#fff"/>
    </g>
    <g id="Group_7506" data-name="Group 7506" transform="translate(14.387)">
      <path id="Path_6274" data-name="Path 6274" d="M2489,121.09a1.128,1.128,0,0,0-1.529.193,12.98,12.98,0,0,0-1.1,1.264l-.031.039a.6.6,0,0,1-1.058.006c-.33-.4-.714-.815-1.173-1.282a.948.948,0,0,0-.7-.332,1.139,1.139,0,0,0-.538.17,1.247,1.247,0,0,0-.649.812,1.16,1.16,0,0,0,.281.941c.544.688,1.152,1.35,1.679,1.917a1.691,1.691,0,0,1,.461,1.194c0,.168,0,.337,0,.505a5.671,5.671,0,0,0,.118,1.459,1,1,0,0,0,1.166.9,1.075,1.075,0,0,0,1.172-.995,7.193,7.193,0,0,0,.055-1.811,1.882,1.882,0,0,1,.442-1.359c.546-.672,1.122-1.39,1.643-2.127A.948.948,0,0,0,2489,121.09Z" transform="translate(-2482.2 -120.873)" fill="#fff"/>
      <path id="Path_6275" data-name="Path 6275" d="M2533.5,121.006a1.148,1.148,0,0,0-1.374.29,12.967,12.967,0,0,0-1.1,1.264l-.031.039a.6.6,0,0,1-1.059.006q-.166-.2-.353-.408l-.047.028s.957,1.393,1.32,1.343A9.951,9.951,0,0,0,2533.5,121.006Z" transform="translate(-2526.86 -120.885)" fill="#fff"/>
      <path id="Path_6276" data-name="Path 6276" d="M2524.809,204.586a7.414,7.414,0,0,0-1.276-3.454,1.99,1.99,0,0,1,.1.595c0,.168,0,.337,0,.505a5.671,5.671,0,0,0,.118,1.459C2523.916,204.329,2524.2,204.573,2524.809,204.586Z" transform="translate(-2521.192 -196.587)" fill="#fff"/>
    </g>
    <g id="Group_7507" data-name="Group 7507" transform="translate(0 0.461)">
      <path id="Path_6277" data-name="Path 6277" d="M2228.235,134.706a9.988,9.988,0,0,0,.359,1.31.354.354,0,0,0,.271.253,5.386,5.386,0,0,0,2.49.217l.016,0,.033,0a4.016,4.016,0,0,0,1.907-.547,2.163,2.163,0,0,0,1.11-1.229c.276-.871.189-1.4-.3-1.837a3.161,3.161,0,0,0-1.375-.7l-.1-.024a2.7,2.7,0,0,1-.742-.259l-.019-.011a.674.674,0,0,1-.412-.592c0-.2.1-.446.508-.536l.04-.009a5.544,5.544,0,0,1,2.029-.211.774.774,0,0,0,.176,0,.751.751,0,0,0,0-.17,9.753,9.753,0,0,0-.13-1.078c-.031-.182-.031-.182-.252-.195l-.335-.019-.037,0a15.172,15.172,0,0,0-1.7-.039,5.834,5.834,0,0,0-2.592.638,1.88,1.88,0,0,0-1.056,1.758,1.916,1.916,0,0,0,1.16,1.817c.407.2.847.372,1.271.535l.127.047a.468.468,0,0,1,.387.422.506.506,0,0,1-.376.531l-.015.006a1.074,1.074,0,0,1-.251.062A4.232,4.232,0,0,1,2228.235,134.706Z" transform="translate(-2228.127 -129.005)" fill="#fff"/>
      <path id="Path_6278" data-name="Path 6278" d="M2282.555,157.224c.276-.871.189-1.4-.3-1.837a3.161,3.161,0,0,0-1.375-.7l-.1-.024a2.7,2.7,0,0,1-.742-.259l-.019-.011a.674.674,0,0,1-.412-.592c0-.2.1-.446.508-.536l.04-.009a5.545,5.545,0,0,1,2.029-.211.772.772,0,0,0,.176,0,.022.022,0,0,0,0-.006h-.006s-2.612-.64-3.135.67c-.292.731.369,1.423,1.041,1.681.533.2,1.268.166,1.636.673a1.242,1.242,0,0,1,.181.915,2.226,2.226,0,0,1-1.11,1.718,5.113,5.113,0,0,0,.479-.233A2.164,2.164,0,0,0,2282.555,157.224Z" transform="translate(-2276.259 -151.522)" fill="#fff"/>
      <path id="Path_6279" data-name="Path 6279" d="M2233.473,223.213a.522.522,0,0,1-.375.426l-.015.006a1.072,1.072,0,0,1-.251.062,4.27,4.27,0,0,1-2.16-.115C2233.484,224.887,2233.583,223.8,2233.473,223.213Z" transform="translate(-2230.528 -217.878)" fill="#fff"/>
    </g>
  </g>
</svg>
