<svg id="title" xmlns="http://www.w3.org/2000/svg" xmlns:xlink="http://www.w3.org/1999/xlink"  viewBox="0 0 816 251.25">
  <defs>
    <clipPath id="clip-path">
      <path id="Path_469" data-name="Path 469" d="M2912.3-2070.112l136.669,97.443L2902-1970.9Z" transform="translate(-2902 2070.112)" fill="none" stroke="#707070" stroke-width="1"/>
    </clipPath>
  </defs>
  <g id="Group_4342" data-name="Group 4342" transform="translate(255.441 -10.884)">
    <g id="Group_4013" data-name="Group 4013" transform="translate(0)">
      <g id="Group_3899" data-name="Group 3899" transform="translate(0)">
        <path id="Path_3324" data-name="Path 3324" d="M197.176,224.779c51.769-17.914,82.967-55.231,100.4-119.1,14.962,66.367,49.651,99.866,110.305,119.552-61.077,17.357-94.048,52.175-110.3,116.757C279.637,280.373,249.731,243.359,197.176,224.779Z" transform="translate(-154.783 -89.31)" fill="#fff"/>
        <path id="Path_460" data-name="Path 460" d="M18.4,151.885C15.4,160.765,10.669,170.5,5.8,177.235a109.63,109.63,0,0,1,11.171,7.734,136.791,136.791,0,0,0,14.465-29.359ZM52.059,90.159A162.909,162.909,0,0,1,45.9,107.918H25.277l10.312-2.864a70.884,70.884,0,0,0-4.726-14.894ZM73.684,147.3V132.981h-22.2V121.953h24.49V107.918H61.081c2.148-4.44,4.3-10.025,6.445-15.467l-11.6-2.291h17.9V76.267H53.348C51.629,71.4,49.051,65.526,46.9,60.8L29.86,64.953c1.432,3.437,3.008,7.447,4.3,11.314H9.667V90.159H29L17.257,93.024a86.1,86.1,0,0,1,4.153,14.894H7.519v14.035h27.5v11.028H8.378V147.3H35.016V194.85h16.47V147.3Zm66.166-38.1H96.6V86.722c14.035-2.578,28.93-6.015,40.673-10.741L124.24,63.521C113.785,68.39,96.456,72.83,80.845,75.694v50.985c0,13.176-.43,28.643-4.44,42.392A141.6,141.6,0,0,0,65.664,150.31l-11.171,6.015a173,173,0,0,1,11.171,21.482l10.168-6.3A56.051,56.051,0,0,1,69.388,185.4c3.58,1.719,10.312,7.161,13.176,10.168C94.737,177.235,96.6,147.732,96.6,126.679v-1.719h13.319V195.28h16.613V124.961H139.85Z" transform="translate(78.618 6.32)" fill="#e76161"/>
        <path id="Path_462" data-name="Path 462" d="M197.176,130.822c11.689-3.781,18.734-11.658,22.67-25.139,3.378,14.009,11.211,21.079,24.907,25.235-13.791,3.664-21.236,11.013-24.905,24.645C215.8,142.556,209.043,134.743,197.176,130.822Z" transform="translate(-197.176 -94.799)" fill="#ffe302"/>
        <path id="Path_465" data-name="Path 465" d="M197.176,130.822c11.689-3.781,18.734-11.658,22.67-25.139,3.378,14.009,11.211,21.079,24.907,25.235-13.791,3.664-21.236,11.013-24.905,24.645C215.8,142.556,209.043,134.743,197.176,130.822Z" transform="translate(50.364 -89.31)" fill="#ffe302"/>
        <path id="Path_463" data-name="Path 463" d="M197.176,122.167c7.665-2.479,12.284-7.644,14.865-16.484,2.215,9.186,7.352,13.822,16.332,16.547-9.043,2.4-13.925,7.221-16.331,16.16C209.385,129.862,204.958,124.739,197.176,122.167Z" transform="translate(34.765 123.743)" fill="#ffe302"/>
        <path id="Path_466" data-name="Path 466" d="M197.176,122.167c7.665-2.479,12.284-7.644,14.865-16.484,2.215,9.186,7.352,13.822,16.332,16.547-9.043,2.4-13.925,7.221-16.331,16.16C209.385,129.862,204.958,124.739,197.176,122.167Z" transform="translate(-19.567 111.036)" fill="#fff"/>
        <path id="Path_467" data-name="Path 467" d="M197.176,122.167c7.665-2.479,12.284-7.644,14.865-16.484,2.215,9.186,7.352,13.822,16.332,16.547-9.043,2.4-13.925,7.221-16.331,16.16C209.385,129.862,204.958,124.739,197.176,122.167Z" transform="translate(-129.541 -72.138)" fill="#fff"/>
        <path id="Path_464" data-name="Path 464" d="M197.176,122.167c7.665-2.479,12.284-7.644,14.865-16.484,2.215,9.186,7.352,13.822,16.332,16.547-9.043,2.4-13.925,7.221-16.331,16.16C209.385,129.862,204.958,124.739,197.176,122.167Z" transform="translate(-137.947 91.036)" fill="#ffe302"/>
        <g id="Group_2" data-name="Group 2" transform="translate(74.078 105.291)" clip-path="url(#clip-path)">
          <path id="Path_468" data-name="Path 468" d="M18.4,151.885C15.4,160.765,10.669,170.5,5.8,177.235a109.63,109.63,0,0,1,11.171,7.734,136.791,136.791,0,0,0,14.465-29.359ZM52.059,90.159A162.909,162.909,0,0,1,45.9,107.918H25.277l10.312-2.864a70.884,70.884,0,0,0-4.726-14.894ZM73.684,147.3V132.981h-22.2V121.953h24.49V107.918H61.081c2.148-4.44,4.3-10.025,6.445-15.467l-11.6-2.291h17.9V76.267H53.348C51.629,71.4,49.051,65.526,46.9,60.8L29.86,64.953c1.432,3.437,3.008,7.447,4.3,11.314H9.667V90.159H29L17.257,93.024a86.1,86.1,0,0,1,4.153,14.894H7.519v14.035h27.5v11.028H8.378V147.3H35.016V194.85h16.47V147.3Zm66.166-38.1H96.6V86.722c14.035-2.578,28.93-6.015,40.673-10.741L124.24,63.521C113.785,68.39,96.456,72.83,80.845,75.694v50.985c0,13.176-.43,28.643-4.44,42.392A141.6,141.6,0,0,0,65.664,150.31l-11.171,6.015a173,173,0,0,1,11.171,21.482l10.168-6.3A56.051,56.051,0,0,1,69.388,185.4c3.58,1.719,10.312,7.161,13.176,10.168C94.737,177.235,96.6,147.732,96.6,126.679v-1.719h13.319V195.28h16.613V124.961H139.85Z" transform="translate(4.496 -98.638)" fill="#4b4b4b"/>
        </g>
      </g>
    </g>
  </g>
  <text id="SnY迎_雙重送" data-name="SnY迎      雙重送" transform="translate(0 173.927)" fill="rgba(0,0,0,0.8)" font-size="105" font-family="NotoSansTC-Bold, Noto Sans TC" font-weight="700" letter-spacing="0.049em"><tspan x="0" y="0">SnY</tspan><tspan y="0" xml:space="preserve">迎      雙重送</tspan></text>
</svg>
