<svg xmlns="http://www.w3.org/2000/svg" xmlns:xlink="http://www.w3.org/1999/xlink" width="828" height="251" viewBox="0 0 828 251">
  <defs>
    <clipPath id="clip-path">
      <rect id="Rectangle_3462" data-name="Rectangle 3462" width="828" height="251" transform="translate(578 377)" fill="#fff"/>
    </clipPath>
  </defs>
  <g id="Mask_Group_8" data-name="Mask Group 8" transform="translate(-578 -377)" clip-path="url(#clip-path)">
    <g id="Group_9874" data-name="Group 9874" transform="translate(498 339.133)">
      <g id="Group_3805" data-name="Group 3805">
        <g id="Group_3795" data-name="Group 3795">
          <g id="Group_3793" data-name="Group 3793">
            <path id="Path_306" data-name="Path 306" d="M997.389,84.75a1527.95,1527.95,0,0,1-709.51,70.289C150.514,135.9,50.659,102.355,7.542,85.993v12.43C53.309,115.507,151.96,147.81,285.821,166.5a1531.251,1531.251,0,0,0,211.6,14.675q60.446,0,120.736-4.767a1535.328,1535.328,0,0,0,379.23-79.347Z" transform="translate(-7.542 -84.75)" fill="#fff"/>
          </g>
          <g id="Group_3794" data-name="Group 3794" transform="translate(0 7.39)">
            <path id="Path_307" data-name="Path 307" d="M997.389,87.812c-483.575,167.263-885.1,41.166-989.847,1.762v4.521c45.767,17.083,144.418,49.387,278.279,68.08a1531.255,1531.255,0,0,0,211.6,14.675q60.446,0,120.736-4.767a1535.327,1535.327,0,0,0,379.23-79.347Z" transform="translate(-7.542 -87.812)" fill="#a6a7a7"/>
          </g>
        </g>
      </g>
    </g>
    <g id="Group_4416" data-name="Group 4416" transform="translate(877.168 -293.459)">
      <g id="Group_9022" data-name="Group 9022" transform="matrix(1, 0.017, -0.017, 1, -126.169, 701.189)">
        <g id="Group_3800" data-name="Group 3800" transform="translate(0 0)">
          <path id="Path_312" data-name="Path 312" d="M75.974,112.315,40.56,82.755,0,104.732,10.452,0,86.428,7.58Z" transform="translate(0 3.03)" fill="#00ade0"/>
          <rect id="Rectangle_3220" data-name="Rectangle 3220" width="7.605" height="76.353" transform="matrix(0.099, -0.995, 0.995, 0.099, 9.999, 7.567)" fill="#5bb1d3"/>
          <rect id="Rectangle_3221" data-name="Rectangle 3221" width="9.128" height="76.352" transform="translate(9.093 16.651) rotate(-84.302)" fill="#d4d5d5" opacity="0.6" style="mix-blend-mode: multiply;isolation: isolate"/>
        </g>
        <path id="Path_4205" data-name="Path 4205" d="M30.874,36.481V10.742a82.436,82.436,0,0,0,9.593-4.256V52.628h7.3V10.877h6.891V38.035c0,.811-.27,1.081-1.013,1.081s-3.04,0-5.27-.068A24.794,24.794,0,0,1,50.6,45.8c3.918,0,6.756-.135,8.783-1.216,2.094-1.216,2.7-3.04,2.7-6.35V4.121H40.467V5.4l-4.8-5.27A62.861,62.861,0,0,1,23.443,6.823V35.6a5.665,5.665,0,0,1-2.7,5.2,20.113,20.113,0,0,1,3.04,6.148c1.351-1.013,3.648-1.959,15.065-5.134a48.04,48.04,0,0,1-.338-7.161ZM18.511,10.066A110.485,110.485,0,0,0,9.526,0L3.581,3.648a108.525,108.525,0,0,1,8.85,10.877ZM16.889,31.82l-1.216.2h-4.8c3.445-4.594,7.7-10.809,10.2-14.457l-4.864-2.229-.811.338H1.892v6.418h8.58A83.188,83.188,0,0,1,4.053,30.6,7,7,0,0,1,.54,32.766a49.825,49.825,0,0,1,2.567,6.486c.54-.54,2.567-1.013,4.121-1.013h5.607C10.607,47.426,6.215,54.046,0,57.762a26.348,26.348,0,0,1,5.2,5.4,28.438,28.438,0,0,0,8.58-9.255c5.27,6.756,13.039,8.039,25.267,8.039,7.837,0,16.484-.135,23.443-.608.405-2.162,1.486-5.81,2.635-7.431-7.634.743-18.781,1.148-25.942,1.148-10.809-.068-18.173-.878-22.227-7.3A63.12,63.12,0,0,0,20.74,33.238Z" transform="translate(10.065 21.565)" fill="#fff"/>
      </g>
      <g id="Group_9023" data-name="Group 9023" transform="matrix(0.999, -0.035, 0.035, 0.999, -11.13, 713.524)">
        <g id="Group_9877" data-name="Group 9877">
          <g id="Group_9876" data-name="Group 9876" transform="translate(3 1)">
            <path id="Path_314" data-name="Path 314" d="M241.874,227.477l-36.652-28.013-39.579,23.7,5.949-105.086,76.23,4.313Z" transform="translate(-151.643 -115.038)" fill="#7db751"/>
            <rect id="Rectangle_3224" data-name="Rectangle 3224" width="7.605" height="76.353" transform="matrix(0.057, -0.998, 0.998, 0.057, 19.691, 7.593)" fill="#7db751"/>
            <rect id="Rectangle_3225" data-name="Rectangle 3225" width="9.126" height="76.353" transform="translate(19.176 16.703) rotate(-86.758)" fill="#d4d5d5" opacity="0.6" style="mix-blend-mode: multiply;isolation: isolate"/>
          </g>
          <path id="Path_4206" data-name="Path 4206" d="M11.745-128.233A48.225,48.225,0,0,1,5.8-116.275a51.722,51.722,0,0,1,5.27,3.648,64.526,64.526,0,0,0,6.823-13.849Zm15.876-29.117a76.848,76.848,0,0,1-2.9,8.377H14.988l4.864-1.351a33.437,33.437,0,0,0-2.229-7.026Zm10.2,26.956v-6.756H27.351v-5.2H38.9v-6.621H31.877c1.013-2.094,2.027-4.729,3.04-7.3l-5.472-1.081H37.89V-163.9H28.229c-.811-2.3-2.027-5.067-3.04-7.3l-8.039,1.959c.676,1.621,1.419,3.513,2.027,5.337H7.624v6.553h9.12L11.2-156a40.613,40.613,0,0,1,1.959,7.026H6.611v6.621H19.582v5.2H7.016v6.756H19.582v22.429h7.769V-130.4Zm31.212-17.97h-20.4v-10.607a104.672,104.672,0,0,0,19.186-5.067l-6.148-5.878c-4.932,2.3-13.106,4.391-20.47,5.742v24.051c0,6.215-.2,13.512-2.094,20a66.8,66.8,0,0,0-5.067-8.85l-5.27,2.837a81.613,81.613,0,0,1,5.27,10.134l4.8-2.973a26.441,26.441,0,0,1-3.04,6.553,30,30,0,0,1,6.215,4.8c5.742-8.647,6.621-22.564,6.621-32.5v-.811h6.283v33.171h7.837v-33.171h6.283Z" transform="translate(21.948 189.454)" fill="#fff"/>
        </g>
      </g>
      <g id="Group_9878" data-name="Group 9878" transform="translate(-7.048 -0.819)">
        <g id="Group_3802" data-name="Group 3802" transform="translate(-5.361 709.989)">
          <g id="Group_9873" data-name="Group 9873" transform="matrix(0.999, -0.035, 0.035, 0.999, 148.24, 6.954)">
            <g id="Group_3803" data-name="Group 3803" transform="translate(0)">
              <path id="Path_315" data-name="Path 315" d="M289.713,224.819l-38.178-25.894-38.176,25.894V119.563h76.354Z" transform="translate(-213.359 -116.523)" fill="#e6623b"/>
              <rect id="Rectangle_3226" data-name="Rectangle 3226" width="76.354" height="7.604" fill="#e6623b"/>
              <rect id="Rectangle_3227" data-name="Rectangle 3227" width="76.354" height="9.127" transform="translate(0 7.604)" fill="#d4d5d5" opacity="0.6" style="mix-blend-mode: multiply;isolation: isolate"/>
            </g>
          </g>
        </g>
        <path id="Path_4208" data-name="Path 4208" d="M19.051,8.107A81.536,81.536,0,0,0,7.161.811L3.31,6.688A89.934,89.934,0,0,1,15,14.66ZM15.538,25.6a76.119,76.119,0,0,0-11.89-6.756L0,24.861a74.374,74.374,0,0,1,11.688,7.5Zm-3.31,9.8A181.886,181.886,0,0,1,1.284,56.546L7.3,62.086C10.809,55.533,14.39,47.9,17.5,40.872ZM54.316,0c-7.9,2.837-20.74,5.27-32.293,6.756V23.848c0,10.4-.54,25.334-7.3,35.671a22.5,22.5,0,0,1,6.35,3.851c7.094-11.079,8.31-28.172,8.31-39.521V12.836c10.742-1.351,22.362-3.445,31.347-6.283Zm3.851,27.564a55.315,55.315,0,0,1-5.607,5.945A84.742,84.742,0,0,1,50.6,22.024a71.981,71.981,0,0,0,9.323-2.567l-6.215-6.283c-4.864,1.959-12.7,3.783-19.862,4.8l.068.068h-.068V51.006a5.045,5.045,0,0,1-2.635,4.8,23.881,23.881,0,0,1,2.973,6.553c1.351-1.216,3.513-2.5,15.876-7.7a35.355,35.355,0,0,1-1.621-6.283l-7.566,2.973v-27.5c1.013-.2,2.094-.338,3.108-.54,2.027,16.619,5.607,30.671,14.592,38.373a31.4,31.4,0,0,1,5.742-6.823c-4.459-3.175-7.566-8.377-9.8-14.592,2.837-1.892,6.013-4.459,9.323-6.756Z" transform="translate(150.193 727.446)" fill="#fff"/>
      </g>
      <g id="Group_9875" data-name="Group 9875" transform="matrix(0.999, -0.035, 0.035, 0.999, 261.832, 700.481)">
        <g id="Group_3797" data-name="Group 3797" transform="translate(0 0)">
          <path id="Path_309" data-name="Path 309" d="M86.3,104.751,45.77,82.718,10.314,112.23,0,7.484,75.987,0Z" transform="translate(0.298 3.023)" fill="#fca518"/>
          <rect id="Rectangle_3214" data-name="Rectangle 3214" width="76.354" height="7.604" transform="translate(0 7.476) rotate(-5.619)" fill="#fca518"/>
          <rect id="Rectangle_3215" data-name="Rectangle 3215" width="76.354" height="9.127" transform="matrix(0.995, -0.098, 0.098, 0.995, 0.746, 15.047)" fill="#d4d5d5" opacity="0.6" style="mix-blend-mode: multiply;isolation: isolate"/>
        </g>
        <path id="Path_4207" data-name="Path 4207" d="M22.564,20.943a57.585,57.585,0,0,1-3.716,8.31H11.62l3.986-2.3a25.183,25.183,0,0,0-3.918-6.013ZM21.01,46.75H31.144V40.264H21.01V35.738H32.022V29.253H26.077c1.216-2.094,2.5-4.391,3.648-6.688l-4.594-1.621h8.783V14.322H25.132V12.363l2.229,1.419c2.162-1.959,5-4.864,7.7-7.769L28.78,2.567a39.453,39.453,0,0,1-3.648,5.27V0H18.714V14.322H15.606V0H9.323V7.229A49.755,49.755,0,0,0,5.2,2.3L.338,5.472a34.685,34.685,0,0,1,5.54,8.107l3.445-2.432v3.175H.135v6.621H8.58L5.134,22.835a38.2,38.2,0,0,1,4.324,6.418h-7.3v6.486H13.579v4.526H3.445V46.75H13.579v5.067c-5.067.54-9.8.946-13.579,1.284l1.013,7.3c8.918-.946,21.483-2.3,33.1-3.783l-.135-6.958c-4.324.473-8.715.946-12.971,1.419Zm40.6-29.793H56.478V.068H48.709V16.957H34.184v7.5H48.709V53.911c0,1.148-.405,1.486-1.554,1.486-1.081,0-4.459,0-7.9-.135a34.43,34.43,0,0,1,2.7,7.634c5.27.068,8.85-.2,11.215-1.554,2.5-1.284,3.31-3.31,3.31-7.431V24.456h5.134ZM46.885,43.237c-.54-4.121-2.837-10.269-5.337-15l-6.621,2.229c2.365,4.932,4.459,11.282,4.864,15.268Z" transform="translate(9.714 23.086) rotate(-8)" fill="#fff"/>
      </g>
    </g>
  </g>
</svg>
